
<!-- Generator: visioncortex VTracer 0.6.4 -->
<svg version="1.1" xmlns="http://www.w3.org/2000/svg" viewBox="0 0 2449 816" preserveAspectRatio="xMidYMid meet">
<path d="M0 0 C4 1 4 1 4 1 Z M9 0 C13 1 13 1 13 1 Z M6.938 0.5 C8.144 0.473 8.144 0.473 9.375 0.445 C14.673 0.499 17.851 1.416 22 5 C22.33 5.99 22.66 6.98 23 8 C23.784 8.433 24.567 8.866 25.375 9.312 C29.438 11.924 30.516 15.548 32 20 C32.866 28.243 32.114 34.353 27 41 C25.921 42.129 24.818 43.236 23.688 44.312 C22.801 45.199 21.914 46.086 21 47 C21 54.926 24.01 62.235 27.031 69.469 C28.384 73.003 29.273 76.621 30.219 80.281 C30.986 82.951 31.93 85.439 33 88 C34.819 92.354 36.04 96.719 37.219 101.281 C37.986 103.951 38.93 106.439 40 109 C41.818 113.351 43.039 117.713 44.215 122.273 C44.997 124.99 45.97 127.52 47.062 130.125 C48.671 133.973 49.633 137.647 50.441 141.727 C51.271 145.101 52.654 148.2 53.996 151.398 C55.028 154.074 55.785 156.724 56.5 159.5 C57.439 163.135 58.553 166.536 60 170 C61.447 173.464 62.561 176.865 63.5 180.5 C64.672 185.027 66.233 189.224 68.031 193.535 C69 195.999 69.77 198.456 70.5 201 C71.75 205.334 73.316 209.458 75.027 213.629 C77.018 218.482 78.806 223.37 80.375 228.375 C82.064 233.522 84.504 238.206 87 243 C87.474 244.011 87.949 245.021 88.438 246.062 C98.637 265.238 115.217 279.722 135.988 286.211 C138 287 138 287 139 289 C141.056 289.506 141.056 289.506 143.438 289.688 C144.642 289.817 144.642 289.817 145.871 289.949 C148.055 290.168 148.055 290.168 150 289 C149.319 287.948 149.319 287.948 148.625 286.875 C146.978 283.96 146.056 281.167 145 278 C144.505 277.175 144.01 276.35 143.5 275.5 C142 273 142 273 141.062 270.125 C140.201 267.59 139.349 265.76 138 263.5 C136.171 260.436 135.108 257.397 134 254 C133.505 253.175 133.01 252.35 132.5 251.5 C130.847 248.744 130.014 246.042 129 243 C128.505 242.175 128.01 241.35 127.5 240.5 C126 238 126 238 125.062 235.125 C124.201 232.59 123.349 230.76 122 228.5 C120.178 225.447 119.002 222.424 118 219 C118.66 219 119.32 219 120 219 C120.057 218.399 120.113 217.799 120.172 217.18 C121.383 213.992 123.198 213.504 126.25 212.125 C127.204 211.674 128.158 211.223 129.141 210.758 C132.626 209.834 133.901 210.242 137 212 C140.034 214.456 140.904 217.157 142.18 220.816 C143.005 223.014 143.983 225.041 145.062 227.125 C146.723 230.346 147.853 233.559 149 237 C149.649 238.342 150.317 239.675 151 241 C152.682 244.266 153.837 247.512 155 251 C155.651 252.32 156.319 253.633 157 254.938 C158.857 258.528 159.899 262.108 161 266 C161.964 267.688 162.962 269.357 164 271 C164.697 272.654 165.361 274.323 166 276 C166.986 278.339 167.994 280.669 169 283 C168.856 282.443 168.711 281.886 168.562 281.312 C167.97 278.878 167.401 276.474 167 274 C167.33 273.67 167.66 273.34 168 273 C167.34 272.67 166.68 272.34 166 272 C165.219 269.707 165.219 269.707 164.5 266.812 C163.474 262.813 162.37 258.899 161 255 C161.33 254.67 161.66 254.34 162 254 C161.34 253.67 160.68 253.34 160 253 C159.254 250.812 159.254 250.812 158.562 248 C157.259 242.912 155.726 237.959 154 233 C154.33 232.67 154.66 232.34 155 232 C154.34 231.67 153.68 231.34 153 231 C152.289 228.848 152.289 228.848 151.625 226.062 C150.395 221.245 148.811 216.764 146.867 212.191 C146.055 210.14 145.48 208.151 145 206 C159.597 201.223 159.597 201.223 167 203 C167.66 205.31 168.32 207.62 169 210 C168.67 210.33 168.34 210.66 168 211 C168.66 211.33 169.32 211.66 170 212 C170.527 213.785 170.527 213.785 170.938 216.062 C171.575 219.249 172.362 222.168 173.562 225.188 C174.856 228.449 175.422 231.533 176 235 C176.476 236.342 176.978 237.675 177.5 239 C179.341 243.706 180 247.934 180 253 C180.66 253.33 181.32 253.66 182 254 C182.562 255.926 182.562 255.926 183 258.312 C183.601 261.562 184.494 264.068 186 267 C186.144 267.908 186.289 268.815 186.438 269.75 C187.03 273.171 188.112 275.995 189.477 279.168 C190 281 190 281 189 284 C189.66 284.33 190.32 284.66 191 285 C190.67 285.99 190.34 286.98 190 288 C190.66 288.33 191.32 288.66 192 289 C191.67 289.99 191.34 290.98 191 292 C194.653 295.159 198.39 297.955 202.375 300.688 C211.129 307.024 218.193 315.537 220.492 326.305 C220.812 328.5 220.812 328.5 221 332 C220.67 332.33 220.34 332.66 220 333 C220.66 333.33 221.32 333.66 222 334 C222 336.31 222 338.62 222 341 C221.34 341 220.68 341 220 341 C220.33 342.98 220.66 344.96 221 347 C220.34 347.33 219.68 347.66 219 348 C219 349.32 219 350.64 219 352 C218.057 354.357 217.054 356.69 216 359 C215.327 360.664 214.658 362.33 214 364 C213.34 364 212.68 364 212 364 C212 364.66 212 365.32 212 366 C212.66 366 213.32 366 214 366 C214.124 367.072 214.247 368.145 214.375 369.25 C214.778 372.801 214.778 372.801 216 375 C218.025 379.05 218 383.548 218 388 C218.66 388.33 219.32 388.66 220 389 C220.527 390.785 220.527 390.785 220.938 393.062 C221.585 396.336 222.427 399.286 223.688 402.375 C225 406 225 406 224 409 C224.66 409.33 225.32 409.66 226 410 C226.688 412.5 226.688 412.5 227 415 C226.67 415.33 226.34 415.66 226 416 C226.66 416.33 227.32 416.66 228 417 C228.633 418.926 228.633 418.926 229.125 421.312 C229.293 422.092 229.46 422.872 229.633 423.676 C230 426 230 426 230 430 C230.495 430.495 230.99 430.99 231.5 431.5 C231.995 431.995 232.49 432.49 233 433 C233 437 233 437 231.438 439.688 C228.351 442.616 226.172 442.759 222 443 C222 442.34 222 441.68 222 441 C221.01 440.34 220.02 439.68 219 439 C215.558 433.64 212.882 428.081 211 422 C210.505 421.175 210.01 420.35 209.5 419.5 C207.847 416.744 207.014 414.042 206 411 C205.505 410.175 205.01 409.35 204.5 408.5 C203 406 203 406 202.062 403.125 C201.201 400.59 200.349 398.76 199 396.5 C197.176 393.433 196.042 390.424 195 387 C194.34 385.35 193.68 383.7 193 382 C188.71 381.67 184.42 381.34 180 381 C179.67 381.66 179.34 382.32 179 383 C161.84 383 144.68 383 127 383 C126.67 384.65 126.34 386.3 126 388 C126.66 388.33 127.32 388.66 128 389 C127.67 390.32 127.34 391.64 127 393 C127.66 393.33 128.32 393.66 129 394 C129.379 395.891 129.379 395.891 129.562 398.25 C129.795 400.909 130.079 403.38 130.625 406 C130.749 406.66 130.872 407.32 131 408 C130.67 408.33 130.34 408.66 130 409 C130.66 409.33 131.32 409.66 132 410 C131.67 411.98 131.34 413.96 131 416 C131.66 416 132.32 416 133 416 C132.67 417.98 132.34 419.96 132 422 C132.66 422 133.32 422 134 422 C133.67 423.32 133.34 424.64 133 426 C133.66 426.33 134.32 426.66 135 427 C134.67 429.31 134.34 431.62 134 434 C134.66 434 135.32 434 136 434 C136.143 441.429 136.143 441.429 135 445 C135.66 445 136.32 445 137 445 C137 449.62 137 454.24 137 459 C136.34 459 135.68 459 135 459 C135.33 459.99 135.66 460.98 136 462 C136.097 464.844 136.139 467.657 136.125 470.5 C136.129 471.272 136.133 472.044 136.137 472.84 C136.131 476.145 136.052 478.844 135 482 C135.66 482 136.32 482 137 482 C137 485.96 137 489.92 137 494 C136.34 494 135.68 494 135 494 C135.33 494.99 135.66 495.98 136 497 C136.736 504.019 136.736 504.019 134.5 507 C134.005 507.33 133.51 507.66 133 508 C133.66 508 134.32 508 135 508 C135.369 512.554 135.369 512.554 133.5 514.812 C133.005 515.204 132.51 515.596 132 516 C132.66 516 133.32 516 134 516 C134 517.32 134 518.64 134 520 C133.34 520.33 132.68 520.66 132 521 C132.33 522.32 132.66 523.64 133 525 C132.34 525 131.68 525 131 525 C131.33 526.65 131.66 528.3 132 530 C131.34 530.33 130.68 530.66 130 531 C130.193 531.58 130.387 532.16 130.586 532.758 C131.071 535.384 130.683 536.458 129.625 538.875 C128.621 541.323 127.964 543.235 127.562 545.875 C126.889 549.619 125.502 552.786 124.039 556.285 C122.984 559.041 122.222 561.766 121.5 564.625 C120.432 568.763 119.05 572.325 116.965 576.051 C115.891 578.101 115.891 578.101 115.082 580.84 C110.502 594.215 101.469 606.804 93 618 C92.361 618.859 91.721 619.717 91.062 620.602 C83.475 630.484 72.935 641.915 60.227 644.582 C58.555 644.73 56.88 644.837 55.203 644.891 C52.256 645.037 49.729 645.923 47 647 C47 647.33 47 647.66 47 648 C26.059 651.336 26.059 651.336 22.309 648.902 C20.875 647.438 20.875 647.438 19 644 C19.188 640.125 19.188 640.125 20 637 C19.34 637 18.68 637 18 637 C17.959 636.092 17.918 635.185 17.875 634.25 C16.065 621.858 7.123 611.865 -2.512 604.609 C-6.759 601.862 -11.323 599.897 -16 598 C-16 597.34 -16 596.68 -16 596 C-18.31 596 -20.62 596 -23 596 C-23.33 595.34 -23.66 594.68 -24 594 C-26.709 593.946 -29.416 593.906 -32.125 593.875 C-32.886 593.858 -33.646 593.841 -34.43 593.824 C-40.434 593.772 -44.9 594.6 -50 598 C-51.534 598.584 -53.076 599.144 -54.625 599.688 C-66.111 604.218 -74.324 613.257 -80 624 C-80.536 624.763 -81.072 625.526 -81.625 626.312 C-83.342 629.669 -83.921 632.902 -84.57 636.598 C-85.368 641.055 -85.368 641.055 -86 643 C-86.66 643.33 -87.32 643.66 -88 644 C-87.505 645.485 -87.505 645.485 -87 647 C-90.574 649.382 -91.458 649.109 -95.594 648.574 C-96.707 648.437 -97.821 648.3 -98.969 648.158 C-100.134 648.003 -101.299 647.848 -102.5 647.688 C-104.781 647.398 -107.062 647.111 -109.344 646.824 C-110.46 646.68 -111.576 646.535 -112.726 646.387 C-115.808 646.023 -118.879 645.769 -121.973 645.543 C-137.274 644.196 -148.473 631.328 -158.047 620.395 C-161.003 616.77 -163.521 612.959 -166 609 C-166.541 608.193 -167.083 607.386 -167.641 606.555 C-172.428 599.331 -176.271 591.755 -180.037 583.969 C-181.373 581.237 -182.763 578.533 -184.155 575.829 C-185.463 572.997 -186.167 570 -187 567 C-187.743 565.577 -187.743 565.577 -188.5 564.125 C-190.101 560.79 -190.807 557.764 -191.473 554.148 C-192.031 551.876 -192.938 550.077 -194 548 C-194.688 544.813 -194.688 544.813 -195 542 C-194.67 541.67 -194.34 541.34 -194 541 C-194.66 540.67 -195.32 540.34 -196 540 C-196.294 538.007 -196.58 536.012 -196.777 534.008 C-196.963 531.909 -196.963 531.909 -197.625 529.562 C-197.749 529.047 -197.873 528.531 -198 528 C-197.67 527.67 -197.34 527.34 -197 527 C-197.66 526.67 -198.32 526.34 -199 526 C-198.67 524.02 -198.34 522.04 -198 520 C-198.66 520 -199.32 520 -200 520 C-199.67 518.02 -199.34 516.04 -199 514 C-199.66 514 -200.32 514 -201 514 C-201.082 510.956 -200.976 508.928 -200 506 C-200.66 506 -201.32 506 -202 506 C-202 504.02 -202 502.04 -202 500 C-201.34 500 -200.68 500 -200 500 C-200.495 499.67 -200.99 499.34 -201.5 499 C-203.882 495.824 -203.192 492.898 -203 489 C-202.34 489 -201.68 489 -201 489 C-201.33 487.35 -201.66 485.7 -202 484 C-202.66 484 -203.32 484 -204 484 C-204 475.75 -204 467.5 -204 459 C-203.34 459 -202.68 459 -202 459 C-201.67 457.02 -201.34 455.04 -201 453 C-201.66 453 -202.32 453 -203 453 C-203.369 445.492 -203.369 445.492 -201.5 443 C-201.005 442.67 -200.51 442.34 -200 442 C-200.66 442 -201.32 442 -202 442 C-202 440.02 -202 438.04 -202 436 C-201.34 436 -200.68 436 -200 436 C-200.33 433.36 -200.66 430.72 -201 428 C-200.34 428 -199.68 428 -199 428 C-199.33 425.69 -199.66 423.38 -200 421 C-199.34 420.67 -198.68 420.34 -198 420 C-198.33 418.35 -198.66 416.7 -199 415 C-198.34 415 -197.68 415 -197 415 C-197.33 413.02 -197.66 411.04 -198 409 C-197.34 408.67 -196.68 408.34 -196 408 C-196.33 406.35 -196.66 404.7 -197 403 C-196.34 402.67 -195.68 402.34 -195 402 C-195.33 400.35 -195.66 398.7 -196 397 C-195.34 396.67 -194.68 396.34 -194 396 C-194.33 394.68 -194.66 393.36 -195 392 C-194.34 392 -193.68 392 -193 392 C-193 389.36 -193 386.72 -193 384 C-193.66 384 -194.32 384 -195 384 C-195.34 382.515 -195.34 382.515 -195.688 381 C-196.54 377.958 -197.758 375.63 -199.5 373 C-201.841 369.45 -202.982 366.152 -204 362 C-204.392 361.113 -204.784 360.226 -205.188 359.312 C-206.1 356.716 -205.942 355.543 -205 353 C-205.66 352.67 -206.32 352.34 -207 352 C-207 342.1 -207 332.2 -207 322 C-206.34 322 -205.68 322 -205 322 C-205.206 320.969 -205.412 319.938 -205.625 318.875 C-206.023 314.764 -205.426 312.803 -204 309 C-203.876 307.928 -203.752 306.855 -203.625 305.75 C-202.938 301.627 -201.588 298.247 -199.973 294.414 C-198.881 291.837 -198.881 291.837 -198 288.375 C-196.999 284.996 -195.669 282.174 -194 279.09 C-192.902 276.916 -192.902 276.916 -192.078 274.141 C-190.93 270.796 -189.457 267.907 -187.75 264.812 C-187.127 263.677 -186.505 262.541 -185.863 261.371 C-185.248 260.259 -184.634 259.146 -184 258 C-182.978 256.126 -181.957 254.251 -180.938 252.375 C-180.45 251.486 -179.963 250.596 -179.461 249.68 C-178.478 247.877 -177.504 246.07 -176.539 244.258 C-173.516 238.612 -170.266 233.197 -166.789 227.82 C-164.311 223.913 -162.003 219.915 -159.688 215.91 C-157.65 212.396 -155.563 208.912 -153.465 205.434 C-152.472 203.784 -151.485 202.13 -150.504 200.473 C-147.653 195.667 -144.69 190.976 -141.566 186.344 C-137.016 179.534 -132.71 172.579 -128.539 165.531 C-126.883 162.808 -125.131 160.16 -123.375 157.5 C-119.816 151.944 -116 145.756 -116 139 C-115.34 138.67 -114.68 138.34 -114 138 C-114.33 137.67 -114.66 137.34 -115 137 C-115.041 135 -115.043 133 -115 131 C-114.34 131 -113.68 131 -113 131 C-113 130.34 -113 129.68 -113 129 C-113.66 129 -114.32 129 -115 129 C-115.103 128.443 -115.206 127.886 -115.312 127.312 C-116.393 123.677 -117.522 120.962 -120.801 118.828 C-124.451 116.931 -127.882 115.515 -132 115 C-132 114.34 -132 113.68 -132 113 C-135.3 112.67 -138.6 112.34 -142 112 C-142 111.34 -142 110.68 -142 110 C-142.884 109.92 -143.769 109.84 -144.68 109.758 C-150.955 108.326 -155.643 103.058 -159.496 98.059 C-161.656 94.522 -162.713 91.119 -163 87 C-162.67 86.34 -162.34 85.68 -162 85 C-162.66 85 -163.32 85 -164 85 C-164.054 82.917 -164.093 80.834 -164.125 78.75 C-164.148 77.59 -164.171 76.43 -164.195 75.234 C-164.01 72.172 -163.608 70.558 -162 68 C-161.01 68 -160.02 68 -159 68 C-158.938 67.402 -158.876 66.804 -158.812 66.188 C-157.662 63.089 -155.894 62.447 -153 61 C-149.504 59.835 -146.754 59.89 -143.066 59.895 C-141.682 59.881 -140.297 59.866 -138.912 59.85 C-136.735 59.827 -134.559 59.813 -132.382 59.825 C-130.275 59.834 -128.172 59.805 -126.066 59.77 C-124.808 59.765 -123.549 59.761 -122.252 59.757 C-118.745 59.291 -118.745 59.291 -116.647 56.103 C-115.832 54.567 -115.832 54.567 -115 53 C-114.531 52.201 -114.062 51.402 -113.578 50.578 C-112.921 49.426 -112.921 49.426 -112.25 48.25 C-101.989 31.132 -86.738 16.377 -68 9 C-64.52 8.371 -64.52 8.371 -61 8 C-59.542 7.843 -59.542 7.843 -58.055 7.684 C-44.397 6.627 -30.688 6.91 -17 7 C-16.67 6.34 -16.34 5.68 -16 5 C-8.585 1.509 -1.147 0.589 6.938 0.5 Z M-150 61 C-150 61.33 -150 61.66 -150 62 C-139.77 62 -129.54 62 -119 62 C-119 61.67 -119 61.34 -119 61 C-129.23 61 -139.46 61 -150 61 Z M170 285 C169.67 285.99 169.34 286.98 169 288 C169.66 288 170.32 288 171 288 C171.33 287.01 171.66 286.02 172 285 C171.34 285 170.68 285 170 285 Z M169 289 C169 289.33 169 289.66 169 290 C170.65 290 172.3 290 174 290 C174 289.67 174 289.34 174 289 C172.35 289 170.7 289 169 289 Z M187 379 C187 379.33 187 379.66 187 380 C188.98 380 190.96 380 193 380 C193 379.67 193 379.34 193 379 C191.02 379 189.04 379 187 379 Z M34 647 C34 647.33 34 647.66 34 648 C36.64 648 39.28 648 42 648 C42 647.67 42 647.34 42 647 C39.36 647 36.72 647 34 647 Z M25 648 C25 648.33 25 648.66 25 649 C27.64 649 30.28 649 33 649 C33 648.67 33 648.34 33 648 C30.36 648 27.72 648 25 648 Z M-61 7 C-57 8 -57 8 -57 8 Z M-144 110 C-142 111 -142 111 -142 111 Z M-139 112 C-136 113 -136 113 -136 113 Z M180 381 C181.98 381 183.96 381 186 381 C186 381.33 186 381.66 186 382 C184.02 382 182.04 382 180 382 C180 381.67 180 381.34 180 381 Z M-19 596 C-16 597 -16 597 -16 597 Z " fill="#D93748" transform="translate(414,83)"/>
<path d="M0 0 C3.96 0 7.92 0 12 0 C12 0.33 12 0.66 12 1 C8.04 1 4.08 1 0 1 C0 0.67 0 0.34 0 0 Z M8.875 0.812 C9.945 0.826 11.015 0.84 12.117 0.854 C14.745 0.889 17.372 0.938 20 1 C20.495 1.99 20.495 1.99 21 3 C23.057 3.279 23.057 3.279 25.5 3.312 C33.74 3.983 40.113 8.415 46 14 C46 14.66 46 15.32 46 16 C47.176 17.114 47.176 17.114 48.375 18.25 C51.142 21.148 52.02 23.17 53 27 C52.67 27.33 52.34 27.66 52 28 C52.66 28.33 53.32 28.66 54 29 C53.67 29.99 53.34 30.98 53 32 C53.66 32.33 54.32 32.66 55 33 C55 34.65 55 36.3 55 38 C54.34 38 53.68 38 53 38 C53 40.31 53 42.62 53 45 C53.66 45 54.32 45 55 45 C55 46.98 55 48.96 55 51 C54.34 51 53.68 51 53 51 C53.33 52.98 53.66 54.96 54 57 C53.01 57.495 53.01 57.495 52 58 C52.206 58.536 52.413 59.072 52.625 59.625 C53.135 62.854 52.083 64.933 51 68 C50.645 70.33 50.309 72.663 50 75 C49.67 75.99 49.34 76.98 49 78 C48.01 78.495 48.01 78.495 47 79 C47 80.32 47 81.64 47 83 C46.625 86.188 46.625 86.188 46 89 C45.01 89.495 45.01 89.495 44 90 C44 91.32 44 92.64 44 94 C43.521 98.39 42.628 101.929 41 106 C40.835 107.238 40.67 108.475 40.5 109.75 C40.335 110.822 40.17 111.895 40 113 C39.01 113.495 39.01 113.495 38 114 C38.206 114.557 38.413 115.114 38.625 115.688 C39.109 118.672 38.192 120.265 37 123 C37 123.99 37 124.98 37 126 C36.01 126.495 36.01 126.495 35 127 C35.33 128.32 35.66 129.64 36 131 C35.34 131.33 34.68 131.66 34 132 C34.33 133.32 34.66 134.64 35 136 C34.34 136 33.68 136 33 136 C33.33 137.98 33.66 139.96 34 142 C33.34 142 32.68 142 32 142 C32.495 145.465 32.495 145.465 33 149 C32.34 149 31.68 149 31 149 C31.33 149.66 31.66 150.32 32 151 C32.072 153.884 32.093 156.742 32.062 159.625 C32.058 160.427 32.053 161.229 32.049 162.055 C32.037 164.036 32.019 166.018 32 168 C36.954 166.834 40.066 165.575 43.75 162.062 C45.017 160.864 45.017 160.864 46.309 159.641 C47.197 158.769 48.085 157.898 49 157 C49.476 156.538 49.952 156.076 50.442 155.6 C57.029 149.213 57.029 149.213 63.062 142.312 C63.702 141.549 64.341 140.786 65 140 C65.66 140 66.32 140 67 140 C67 139.34 67 138.68 67 138 C75.573 128.883 91.631 114.938 104.25 113.062 C105.158 113.042 106.065 113.021 107 113 C107 112.34 107 111.68 107 111 C108.98 111 110.96 111 113 111 C113 110.34 113 109.68 113 109 C120.331 108.619 127.664 108.284 135 108 C136.221 107.953 136.221 107.953 137.467 107.904 C145.535 107.63 152.474 107.774 160 111 C160 111.66 160 112.32 160 113 C160.825 113.041 161.65 113.082 162.5 113.125 C167.24 114.31 170.288 116.919 174 120 C173.67 120.99 173.34 121.98 173 123 C174.32 123.33 175.64 123.66 177 124 C177.33 125.98 177.66 127.96 178 130 C177.34 130 176.68 130 176 130 C176.211 130.575 176.423 131.15 176.641 131.742 C177.241 135.516 175.179 137.523 173.051 140.512 C167.514 147.23 160.678 152.543 153.75 157.75 C141.992 166.608 131.726 177.197 121.312 187.562 C120.451 188.42 119.589 189.277 118.701 190.16 C117.888 190.975 117.076 191.789 116.238 192.629 C115.156 193.713 115.156 193.713 114.052 194.819 C111.892 197.115 109.949 199.523 108 202 C106.552 203.614 105.094 205.218 103.625 206.812 C100.379 210.398 97.368 214.031 94.527 217.941 C92.753 220.333 90.881 222.63 89 224.938 C85.936 228.745 83.15 232.634 80.488 236.73 C78.916 239.128 77.28 241.471 75.625 243.812 C72.307 248.53 69.097 253.314 65.91 258.121 C64.737 259.889 63.559 261.653 62.371 263.41 C58.712 268.827 55.312 274.365 52 280 C51.42 280.985 50.84 281.97 50.242 282.984 C46.747 288.946 43.32 294.939 40 301 C39.563 301.793 39.126 302.586 38.676 303.402 C35.527 309.139 32.441 314.907 29.375 320.688 C29.003 321.388 28.631 322.089 28.247 322.811 C23.209 332.04 23.209 332.04 19.25 341.75 C19.008 342.467 18.765 343.183 18.516 343.922 C17.839 346.29 17.839 346.29 18 350 C17.34 350.33 16.68 350.66 16 351 C16.33 351.33 16.66 351.66 17 352 C17.239 359.522 17.239 359.522 16 362 C16.66 362 17.32 362 18 362 C18.186 362.825 18.371 363.65 18.562 364.5 C24.058 377.879 40.927 389.327 52 398 C52.622 398.49 53.245 398.979 53.886 399.484 C73.019 414.492 92.776 427.069 115 437 C115 437.66 115 438.32 115 439 C115.897 439.071 116.794 439.142 117.719 439.215 C123.592 440.064 129.007 442.407 134.5 444.562 C136.153 445.171 136.153 445.171 137.84 445.791 C144.577 448.432 150.446 451.38 154 458 C153.67 458.99 153.34 459.98 153 461 C153.66 461.33 154.32 461.66 155 462 C155.563 468.477 153.663 473.148 151 479 C150.546 480.011 150.092 481.021 149.625 482.062 C144.904 490.597 144.904 490.597 142 494 C141.01 494 140.02 494 139 494 C139.33 494.99 139.66 495.98 140 497 C135.463 503.481 127.514 511.241 119.82 513.695 C119.22 513.796 118.619 513.896 118 514 C117.01 514.33 116.02 514.66 115 515 C97.968 517.421 86.205 513.07 72 504 C71.379 503.617 70.758 503.234 70.118 502.839 C66.64 500.694 63.302 498.405 60 496 C58.998 495.27 57.997 494.541 56.965 493.789 C53.952 491.557 50.97 489.29 48 487 C46.735 486.029 46.735 486.029 45.445 485.039 C36.664 478.165 28.594 470.634 20.742 462.73 C20.277 462.262 19.812 461.794 19.333 461.312 C16.979 458.94 14.634 456.562 12.298 454.173 C11.427 453.291 10.557 452.409 9.66 451.5 C8.883 450.706 8.106 449.912 7.305 449.094 C4.434 446.486 1.707 444.22 -2.211 443.715 C-8.29 444.34 -12.089 446.242 -16 451 C-17.943 454.271 -19 457.141 -19 461 C-19.66 461 -20.32 461 -21 461 C-20.67 461.66 -20.34 462.32 -20 463 C-19.96 465.333 -19.957 467.667 -20 470 C-20.66 470.33 -21.32 470.66 -22 471 C-21.67 471.33 -21.34 471.66 -21 472 C-20.928 473.519 -20.916 475.042 -20.938 476.562 C-20.947 477.389 -20.956 478.215 -20.965 479.066 C-20.976 479.704 -20.988 480.343 -21 481 C-21.66 481 -22.32 481 -23 481 C-23.33 482.65 -23.66 484.3 -24 486 C-23.34 486 -22.68 486 -22 486 C-22 488.97 -22 491.94 -22 495 C-22.66 495 -23.32 495 -24 495 C-24.33 497.31 -24.66 499.62 -25 502 C-24.34 502 -23.68 502 -23 502 C-23 504.31 -23 506.62 -23 509 C-23.66 509 -24.32 509 -25 509 C-25.33 510.65 -25.66 512.3 -26 514 C-25.34 514 -24.68 514 -24 514 C-24 516.31 -24 518.62 -24 521 C-24.66 521 -25.32 521 -26 521 C-25.505 525.455 -25.505 525.455 -25 530 C-25.66 530 -26.32 530 -27 530 C-26.67 532.31 -26.34 534.62 -26 537 C-26.66 537.33 -27.32 537.66 -28 538 C-27.773 538.639 -27.546 539.279 -27.312 539.938 C-26.802 544.937 -28.777 549.553 -31 554 C-31.99 554 -32.98 554 -34 554 C-34.206 554.742 -34.413 555.485 -34.625 556.25 C-36.38 559.76 -38.475 561.446 -42 563 C-45.598 563.738 -49.148 563.922 -52.812 564.062 C-53.759 564.134 -54.706 564.206 -55.682 564.279 C-64.452 564.684 -70.103 561.652 -76.625 556 C-82.03 550.266 -87.112 541.931 -88 534 C-87.67 533.67 -87.34 533.34 -87 533 C-87.66 532.67 -88.32 532.34 -89 532 C-88.67 531.01 -88.34 530.02 -88 529 C-88.66 528.67 -89.32 528.34 -90 528 C-90.449 526.004 -90.449 526.004 -90.688 523.562 C-90.774 522.759 -90.86 521.956 -90.949 521.129 C-91 519 -91 519 -90 517 C-90.66 517 -91.32 517 -92 517 C-92.089 513.168 -91.879 509.734 -91 506 C-91.66 506 -92.32 506 -93 506 C-93 488.84 -93 471.68 -93 454 C-92.34 454 -91.68 454 -91 454 C-90.67 452.02 -90.34 450.04 -90 448 C-90.66 448 -91.32 448 -92 448 C-92 444.37 -92 440.74 -92 437 C-91.34 437 -90.68 437 -90 437 C-90.495 435.515 -90.495 435.515 -91 434 C-91.068 432.272 -91.085 430.542 -91.062 428.812 C-91.053 427.911 -91.044 427.01 -91.035 426.082 C-91.024 425.395 -91.012 424.708 -91 424 C-90.34 423.67 -89.68 423.34 -89 423 C-89.33 422.67 -89.66 422.34 -90 422 C-90.141 419.329 -90.042 416.676 -90 414 C-89.34 414 -88.68 414 -88 414 C-87.505 412.02 -87.505 412.02 -87 410 C-87.66 410 -88.32 410 -89 410 C-89 408.02 -89 406.04 -89 404 C-88.34 404 -87.68 404 -87 404 C-86.505 402.02 -86.505 402.02 -86 400 C-86.66 400 -87.32 400 -88 400 C-88 398.35 -88 396.7 -88 395 C-87.34 395 -86.68 395 -86 395 C-86.33 392.03 -86.66 389.06 -87 386 C-86.34 386 -85.68 386 -85 386 C-85.33 383.36 -85.66 380.72 -86 378 C-85.34 378 -84.68 378 -84 378 C-84.33 377.34 -84.66 376.68 -85 376 C-85.04 374 -85.043 372 -85 370 C-84.34 369.67 -83.68 369.34 -83 369 C-83.33 368.67 -83.66 368.34 -84 368 C-84.125 365 -84.125 365 -84 362 C-83.67 361.67 -83.34 361.34 -83 361 C-82.959 359 -82.957 357 -83 355 C-82.34 354.67 -81.68 354.34 -81 354 C-81.33 352.35 -81.66 350.7 -82 349 C-81.34 349 -80.68 349 -80 349 C-80.33 346.69 -80.66 344.38 -81 342 C-80.34 342 -79.68 342 -79 342 C-79.33 339.69 -79.66 337.38 -80 335 C-79.34 335 -78.68 335 -78 335 C-78.33 332.69 -78.66 330.38 -79 328 C-78.34 327.67 -77.68 327.34 -77 327 C-77.33 325.35 -77.66 323.7 -78 322 C-77.34 321.67 -76.68 321.34 -76 321 C-76.33 320.67 -76.66 320.34 -77 320 C-77.125 317.5 -77.125 317.5 -77 315 C-76.67 314.67 -76.34 314.34 -76 314 C-76 313.175 -76 312.35 -76 311.5 C-76 309 -76 309 -75 308 C-74.959 306.334 -74.957 304.666 -75 303 C-74.34 302.67 -73.68 302.34 -73 302 C-73.33 300.35 -73.66 298.7 -74 297 C-73.34 296.67 -72.68 296.34 -72 296 C-72.495 294.02 -72.495 294.02 -73 292 C-72.34 292 -71.68 292 -71 292 C-71.33 290.02 -71.66 288.04 -72 286 C-71.34 286 -70.68 286 -70 286 C-70.33 284.02 -70.66 282.04 -71 280 C-70.34 279.67 -69.68 279.34 -69 279 C-69.33 277.35 -69.66 275.7 -70 274 C-69.34 273.67 -68.68 273.34 -68 273 C-68.278 271.917 -68.278 271.917 -68.562 270.812 C-69.025 267.837 -68.876 265.868 -68 263 C-67.34 262.67 -66.68 262.34 -66 262 C-66.495 260.02 -66.495 260.02 -67 258 C-66.34 258 -65.68 258 -65 258 C-65.33 256.02 -65.66 254.04 -66 252 C-65.34 251.67 -64.68 251.34 -64 251 C-64.495 249.02 -64.495 249.02 -65 247 C-64.34 247 -63.68 247 -63 247 C-63.186 246.113 -63.371 245.226 -63.562 244.312 C-63.983 241.125 -63.957 239.046 -63 236 C-62.34 235.67 -61.68 235.34 -61 235 C-61.495 233.02 -61.495 233.02 -62 231 C-61.34 230.67 -60.68 230.34 -60 230 C-60.33 228.68 -60.66 227.36 -61 226 C-60.34 226 -59.68 226 -59 226 C-59.33 224.02 -59.66 222.04 -60 220 C-59.34 219.67 -58.68 219.34 -58 219 C-58.33 217.68 -58.66 216.36 -59 215 C-58.34 214.67 -57.68 214.34 -57 214 C-57.33 212.68 -57.66 211.36 -58 210 C-57.34 209.67 -56.68 209.34 -56 209 C-56.33 207.68 -56.66 206.36 -57 205 C-56.34 204.67 -55.68 204.34 -55 204 C-55.33 202.68 -55.66 201.36 -56 200 C-55.34 199.67 -54.68 199.34 -54 199 C-54.33 197.68 -54.66 196.36 -55 195 C-54.34 194.67 -53.68 194.34 -53 194 C-53.33 192.68 -53.66 191.36 -54 190 C-53.34 189.67 -52.68 189.34 -52 189 C-52.33 187.68 -52.66 186.36 -53 185 C-52.34 184.67 -51.68 184.34 -51 184 C-51.33 182.68 -51.66 181.36 -52 180 C-51.34 179.67 -50.68 179.34 -50 179 C-50.33 177.68 -50.66 176.36 -51 175 C-50.34 174.67 -49.68 174.34 -49 174 C-49.33 172.68 -49.66 171.36 -50 170 C-49.34 169.67 -48.68 169.34 -48 169 C-48.33 167.68 -48.66 166.36 -49 165 C-48.34 164.67 -47.68 164.34 -47 164 C-47.33 162.68 -47.66 161.36 -48 160 C-47.34 159.67 -46.68 159.34 -46 159 C-46.33 157.68 -46.66 156.36 -47 155 C-46.34 154.67 -45.68 154.34 -45 154 C-45.495 151.525 -45.495 151.525 -46 149 C-45.34 148.67 -44.68 148.34 -44 148 C-44.206 147.464 -44.413 146.928 -44.625 146.375 C-45.134 143.149 -44.049 141.09 -43 138 C-42.664 135.711 -42.436 133.424 -42.211 131.121 C-41.969 128.687 -41.663 126.358 -41 124 C-40.34 123.67 -39.68 123.34 -39 123 C-39.33 121.68 -39.66 120.36 -40 119 C-39.34 118.67 -38.68 118.34 -38 118 C-38.33 116.68 -38.66 115.36 -39 114 C-38.34 113.67 -37.68 113.34 -37 113 C-37.33 111.68 -37.66 110.36 -38 109 C-37.34 108.67 -36.68 108.34 -36 108 C-36.206 107.464 -36.413 106.928 -36.625 106.375 C-37.134 103.149 -36.049 101.09 -35 98 C-34.664 95.711 -34.436 93.424 -34.211 91.121 C-33.969 88.687 -33.663 86.358 -33 84 C-32.34 83.67 -31.68 83.34 -31 83 C-31.33 81.68 -31.66 80.36 -32 79 C-31.34 78.67 -30.68 78.34 -30 78 C-30.33 76.68 -30.66 75.36 -31 74 C-30.34 73.67 -29.68 73.34 -29 73 C-29.33 71.35 -29.66 69.7 -30 68 C-29.34 67.67 -28.68 67.34 -28 67 C-28.33 65.68 -28.66 64.36 -29 63 C-28.34 63 -27.68 63 -27 63 C-27.495 60.03 -27.495 60.03 -28 57 C-27.34 56.67 -26.68 56.34 -26 56 C-26.33 54.35 -26.66 52.7 -27 51 C-26.34 50.67 -25.68 50.34 -25 50 C-25.33 48.35 -25.66 46.7 -26 45 C-25.34 44.67 -24.68 44.34 -24 44 C-24.33 42.35 -24.66 40.7 -25 39 C-24.34 39 -23.68 39 -23 39 C-23.495 36.03 -23.495 36.03 -24 33 C-23.01 32.505 -23.01 32.505 -22 32 C-22.201 31.441 -22.402 30.881 -22.609 30.305 C-23.354 25.909 -20.768 21.951 -19 18 C-18.567 16.969 -18.134 15.938 -17.688 14.875 C-10.981 3.449 -4.07 0.502 8.875 0.812 Z M147 109 C151 110 151 110 151 110 Z M31 169 C31 169.33 31 169.66 31 170 C32.65 170 34.3 170 36 170 C36 169.67 36 169.34 36 169 C34.35 169 32.7 169 31 169 Z M-8 442 C-8 442.33 -8 442.66 -8 443 C-5.36 443 -2.72 443 0 443 C0 442.67 0 442.34 0 442 C-2.64 442 -5.28 442 -8 442 Z M21 2 C24 3 24 3 24 3 Z M25 3 C28 4 28 4 28 4 Z M122 107 C124.64 107 127.28 107 130 107 C130 107.33 130 107.66 130 108 C127.36 108 124.72 108 122 108 C122 107.67 122 107.34 122 107 Z M135 107 C138.63 107 142.26 107 146 107 C146 107.33 146 107.66 146 108 C142.37 108 138.74 108 135 108 C135 107.67 135 107.34 135 107 Z M117 108 C121 109 121 109 121 109 Z M110 110 C113 111 113 111 113 111 Z M105 112 C107 113 107 113 107 113 Z M160 112 C162 113 162 113 162 113 Z M115 438 C117 439 117 439 117 439 Z M118 513 C120 514 120 514 120 514 Z M96 515 C100 516 100 516 100 516 Z M112 515 C115 516 115 516 115 516 Z M100 516 C103.63 516 107.26 516 111 516 C111 516.33 111 516.66 111 517 C107.37 517 103.74 517 100 517 C100 516.67 100 516.34 100 516 Z M-49 563 C-45 564 -45 564 -45 564 Z M-61 564 C-57.04 564 -53.08 564 -49 564 C-49 564.33 -49 564.66 -49 565 C-52.96 565 -56.92 565 -61 565 C-61 564.67 -61 564.34 -61 564 Z " fill="#000000" transform="translate(839,126)"/>
<path d="M0 0 C4 1 4 1 4 1 Z M11.054 0.967 C12.496 0.989 13.939 0.997 15.382 0.99 C26.956 0.939 37.213 2.814 46.119 10.931 C47.56 12.552 48.782 14.209 50 16 C50.722 16.804 51.444 17.609 52.188 18.438 C55.345 22.902 57.179 26.992 56.688 32.5 C56.347 33.738 56.347 33.738 56 35 C56.66 35 57.32 35 58 35 C58 38.96 58 42.92 58 47 C57.34 47 56.68 47 56 47 C56.33 49.31 56.66 51.62 57 54 C56.34 54 55.68 54 55 54 C55.186 54.907 55.371 55.815 55.562 56.75 C55.957 59.68 56.098 61.304 55 64 C54.01 64.495 54.01 64.495 53 65 C53.33 65.99 53.66 66.98 54 68 C53.01 68.495 53.01 68.495 52 69 C52.33 69.99 52.66 70.98 53 72 C52.01 72.495 52.01 72.495 51 73 C51.33 73.99 51.66 74.98 52 76 C51.01 76.495 51.01 76.495 50 77 C50 78.32 50 79.64 50 81 C49.571 84.496 49.115 87.655 48 91 C47.01 91.495 47.01 91.495 46 92 C46 93.32 46 94.64 46 96 C45.521 100.39 44.628 103.929 43 108 C42.835 109.238 42.67 110.475 42.5 111.75 C42.335 112.822 42.17 113.895 42 115 C41.01 115.495 41.01 115.495 40 116 C40.186 116.577 40.371 117.155 40.562 117.75 C41.047 120.242 40.895 121.64 40 124 C39.01 124.495 39.01 124.495 38 125 C38.33 126.32 38.66 127.64 39 129 C38.34 129.33 37.68 129.66 37 130 C37.33 131.32 37.66 132.64 38 134 C37.34 134.33 36.68 134.66 36 135 C36.33 136.32 36.66 137.64 37 139 C36.34 139 35.68 139 35 139 C35.495 142.465 35.495 142.465 36 146 C35.34 146.33 34.68 146.66 34 147 C34.33 147.33 34.66 147.66 35 148 C35.041 150 35.043 152 35 154 C34.34 154 33.68 154 33 154 C32.67 155.65 32.34 157.3 32 159 C32.66 159 33.32 159 34 159 C34 159.66 34 160.32 34 161 C33.34 161 32.68 161 32 161 C32.33 161.99 32.66 162.98 33 164 C33.66 164.33 34.32 164.66 35 165 C35 165.99 35 166.98 35 168 C43.17 164.616 48.683 159.978 54.75 153.625 C55.561 152.8 56.372 151.975 57.207 151.125 C60.677 147.57 64.061 143.986 67.25 140.176 C69.68 137.289 72.284 134.911 75.25 132.562 C76.206 131.803 77.163 131.044 78.148 130.262 C79.56 129.142 79.56 129.142 81 128 C81.817 127.305 82.635 126.61 83.477 125.895 C90.64 119.863 98.791 114.213 108 112 C108.99 111.34 109.98 110.68 111 110 C113.086 109.621 113.086 109.621 115.375 109.438 C117.753 109.237 120.007 108.998 122.342 108.493 C124.923 108.014 127.258 107.871 129.879 107.867 C131.252 107.863 131.252 107.863 132.652 107.86 C136.573 107.88 140.494 107.911 144.415 107.967 C146.483 107.993 148.552 107.992 150.621 107.98 C159.631 108.237 168.399 111.967 175.184 117.914 C178.721 121.901 180 124.677 180 130 C178.387 141.521 167.317 148.519 158.695 155.141 C147.129 164.044 136.747 174.07 126.438 184.375 C125.867 184.945 125.296 185.515 124.707 186.102 C117.38 193.431 110.447 200.871 104 209 C102.605 210.688 101.209 212.376 99.812 214.062 C95.025 219.91 90.482 225.917 86 232 C85.319 232.918 84.639 233.836 83.938 234.781 C77.215 243.92 70.949 253.342 65 263 C64.188 264.292 63.375 265.584 62.562 266.875 C60.184 270.676 57.891 274.526 55.598 278.379 C53.974 281.042 52.274 283.643 50.562 286.25 C47.15 291.558 44.392 297.054 41.676 302.738 C40 306 40 306 38.074 308.828 C35.442 312.854 33.5 317.072 31.5 321.438 C27.253 330.665 27.253 330.665 24.789 334.793 C23.194 337.653 22.393 339.689 21.875 342.875 C21.492 345.18 21.492 345.18 21 347 C20.34 347.33 19.68 347.66 19 348 C19.33 348.33 19.66 348.66 20 349 C19.994 350.875 19.945 352.751 19.875 354.625 C19.833 363.468 22.936 368.867 29 375 C30.881 376.737 32.802 378.41 34.754 380.066 C37.271 382.233 39.692 384.489 42.125 386.75 C48.475 392.531 55.165 397.807 62 403 C62.905 403.691 62.905 403.691 63.829 404.396 C76.539 414.048 89.839 422.619 104 430 C104 430.66 104 431.32 104 432 C104.786 432.081 105.573 432.162 106.383 432.246 C111.174 433.245 115.402 435.112 119.875 437.062 C120.754 437.44 121.633 437.817 122.539 438.205 C124.695 439.131 126.849 440.063 129 441 C129 441.66 129 442.32 129 443 C130.609 443.093 130.609 443.093 132.25 443.188 C138.144 443.927 143.853 446.062 149 449 C150.227 451.113 150.227 451.113 151 453 C151.66 453.289 152.32 453.577 153 453.875 C155 455 155 455 156.312 457.938 C157 461 157 461 156 464 C156.66 464.33 157.32 464.66 158 465 C157.34 465 156.68 465 156 465 C156.236 465.831 156.472 466.663 156.715 467.52 C157.081 471.986 155.615 474.859 153.562 478.688 C153.195 479.392 152.827 480.096 152.448 480.821 C145.727 493.396 135.128 509.188 120.812 513.688 C120.214 513.791 119.616 513.894 119 514 C118.401 514.174 117.802 514.348 117.185 514.527 C114.754 515.053 112.715 515.022 110.234 514.879 C108.9 514.806 108.9 514.806 107.539 514.732 C106.619 514.676 105.698 514.62 104.75 514.562 C103.814 514.51 102.878 514.458 101.914 514.404 C99.609 514.275 97.304 514.14 95 514 C95 513.34 95 512.68 95 512 C93.772 511.886 93.772 511.886 92.52 511.77 C88.063 510.795 84.629 508.93 80.688 506.688 C79.515 506.027 79.515 506.027 78.318 505.354 C66.14 498.357 54.764 490.007 44 481 C43.053 480.237 42.105 479.474 41.129 478.688 C31.511 470.806 22.854 461.987 14.175 453.102 C13.666 452.584 13.156 452.066 12.631 451.532 C11.229 450.105 9.832 448.673 8.435 447.24 C6.296 445.272 4.634 444.133 2 443 C1.67 442.67 1.34 442.34 1 442 C-1 441.959 -3 441.957 -5 442 C-5 442.66 -5 443.32 -5 444 C-5.743 444.433 -6.485 444.866 -7.25 445.312 C-12.498 448.533 -14.149 452.325 -16 458 C-17.625 459.875 -17.625 459.875 -19 461 C-18.34 461 -17.68 461 -17 461 C-17 462.65 -17 464.3 -17 466 C-17.66 466 -18.32 466 -19 466 C-18.67 468.97 -18.34 471.94 -18 475 C-18.66 475 -19.32 475 -20 475 C-19.835 475.639 -19.67 476.279 -19.5 476.938 C-18.841 480.976 -18.92 484.918 -19 489 C-19.66 489 -20.32 489 -21 489 C-21.043 490.666 -21.041 492.334 -21 494 C-20.67 494.33 -20.34 494.66 -20 495 C-19.928 496.686 -19.916 498.375 -19.938 500.062 C-19.947 500.982 -19.956 501.901 -19.965 502.848 C-19.976 503.558 -19.988 504.268 -20 505 C-20.66 505 -21.32 505 -22 505 C-21.505 506.485 -21.505 506.485 -21 508 C-20.933 509.561 -20.915 511.125 -20.938 512.688 C-20.947 513.496 -20.956 514.304 -20.965 515.137 C-20.976 515.752 -20.988 516.366 -21 517 C-21.66 517 -22.32 517 -23 517 C-22.67 517.66 -22.34 518.32 -22 519 C-21.866 521.672 -21.957 524.323 -22 527 C-22.66 527.33 -23.32 527.66 -24 528 C-23.67 528.33 -23.34 528.66 -23 529 C-22.75 531.375 -22.75 531.375 -23 534 C-24.5 535.813 -24.5 535.813 -26 537 C-25.34 537 -24.68 537 -24 537 C-24 537.99 -24 538.98 -24 540 C-24.66 540.33 -25.32 540.66 -26 541 C-25.67 542.32 -25.34 543.64 -25 545 C-25.66 545.33 -26.32 545.66 -27 546 C-27 547.32 -27 548.64 -27 550 C-28.642 554.627 -32.114 558.033 -36.438 560.25 C-45.691 562.958 -59.024 564.472 -68.098 560.719 C-70.408 558.975 -72.169 557.238 -74 555 C-74.566 554.352 -75.132 553.703 -75.715 553.035 C-80.882 546.655 -84.027 540.078 -85.559 532.035 C-85.968 529.831 -85.968 529.831 -87.188 527.25 C-88.192 524.47 -87.801 522.802 -87 520 C-87.66 519.67 -88.32 519.34 -89 519 C-89.089 515.801 -88.911 513.073 -88 510 C-88.66 510 -89.32 510 -90 510 C-90 507.03 -90 504.06 -90 501 C-89.34 501 -88.68 501 -88 501 C-88.162 500.153 -88.325 499.306 -88.492 498.434 C-89.012 494.922 -89.129 491.611 -89.133 488.062 C-89.134 486.755 -89.135 485.448 -89.137 484.102 C-89.135 483.428 -89.133 482.754 -89.13 482.06 C-89.125 480.006 -89.13 477.952 -89.137 475.898 C-89.135 474.591 -89.134 473.284 -89.133 471.938 C-89.132 470.75 -89.131 469.563 -89.129 468.34 C-89.005 465.141 -88.602 462.141 -88 459 C-88.66 459 -89.32 459 -90 459 C-90 455.04 -90 451.08 -90 447 C-89.34 447 -88.68 447 -88 447 C-87.67 445.02 -87.34 443.04 -87 441 C-87.66 441 -88.32 441 -89 441 C-89 438.36 -89 435.72 -89 433 C-88.34 433 -87.68 433 -87 433 C-87.165 432.34 -87.33 431.68 -87.5 431 C-88.122 427.269 -88.064 423.781 -88 420 C-87.34 420 -86.68 420 -86 420 C-86.495 418.515 -86.495 418.515 -87 417 C-87.128 414.326 -87.044 411.679 -87 409 C-86.34 408.67 -85.68 408.34 -85 408 C-85.33 407.67 -85.66 407.34 -86 407 C-86.041 404.667 -86.042 402.333 -86 400 C-85.34 400 -84.68 400 -84 400 C-84.16 399.078 -84.16 399.078 -84.324 398.137 C-84.504 396.924 -84.504 396.924 -84.688 395.688 C-84.815 394.887 -84.943 394.086 -85.074 393.262 C-85 391 -85 391 -83.52 389.207 C-83.018 388.809 -82.517 388.41 -82 388 C-82.66 388 -83.32 388 -84 388 C-84 386.35 -84 384.7 -84 383 C-83.34 383 -82.68 383 -82 383 C-82.33 380.36 -82.66 377.72 -83 375 C-82.34 375 -81.68 375 -81 375 C-81.33 372.36 -81.66 369.72 -82 367 C-81.34 367 -80.68 367 -80 367 C-80.33 364.36 -80.66 361.72 -81 359 C-80.34 358.67 -79.68 358.34 -79 358 C-79.33 357.67 -79.66 357.34 -80 357 C-80.041 355.334 -80.043 353.666 -80 352 C-79.34 351.67 -78.68 351.34 -78 351 C-78.33 350.67 -78.66 350.34 -79 350 C-79.041 348.334 -79.043 346.666 -79 345 C-78.34 344.67 -77.68 344.34 -77 344 C-77.33 342.35 -77.66 340.7 -78 339 C-77.34 339 -76.68 339 -76 339 C-76.33 336.69 -76.66 334.38 -77 332 C-76.34 332 -75.68 332 -75 332 C-75.33 329.69 -75.66 327.38 -76 325 C-75.34 324.67 -74.68 324.34 -74 324 C-74.33 322.35 -74.66 320.7 -75 319 C-74.34 319 -73.68 319 -73 319 C-73.33 317.02 -73.66 315.04 -74 313 C-73.34 313 -72.68 313 -72 313 C-72.186 311.866 -72.371 310.731 -72.562 309.562 C-72.707 308.387 -72.851 307.211 -73 306 C-72.67 305.67 -72.34 305.34 -72 305 C-72 304.175 -72 303.35 -72 302.5 C-72 300 -72 300 -71 299 C-71 298.257 -71 297.515 -71 296.75 C-71 294.021 -70.606 291.653 -70 289 C-69.34 289 -68.68 289 -68 289 C-68.33 287.02 -68.66 285.04 -69 283 C-68.34 283 -67.68 283 -67 283 C-67.33 281.02 -67.66 279.04 -68 277 C-67.34 276.67 -66.68 276.34 -66 276 C-66.278 274.917 -66.278 274.917 -66.562 273.812 C-67.025 270.837 -66.876 268.868 -66 266 C-65.34 265.67 -64.68 265.34 -64 265 C-64.278 263.917 -64.278 263.917 -64.562 262.812 C-65.025 259.837 -64.876 257.868 -64 255 C-63.34 254.67 -62.68 254.34 -62 254 C-62.33 252.35 -62.66 250.7 -63 249 C-62.34 248.67 -61.68 248.34 -61 248 C-61.495 246.02 -61.495 246.02 -62 244 C-61.34 243.67 -60.68 243.34 -60 243 C-60.495 241.02 -60.495 241.02 -61 239 C-60.34 239 -59.68 239 -59 239 C-59.33 237.35 -59.66 235.7 -60 234 C-59.34 234 -58.68 234 -58 234 C-58.186 233.113 -58.371 232.226 -58.562 231.312 C-58.983 228.125 -58.957 226.046 -58 223 C-57.34 222.67 -56.68 222.34 -56 222 C-56.33 220.68 -56.66 219.36 -57 218 C-56.34 217.67 -55.68 217.34 -55 217 C-55.33 215.68 -55.66 214.36 -56 213 C-55.34 212.67 -54.68 212.34 -54 212 C-54.33 210.68 -54.66 209.36 -55 208 C-54.34 208 -53.68 208 -53 208 C-53.495 205.525 -53.495 205.525 -54 203 C-53.34 203 -52.68 203 -52 203 C-52.206 202.134 -52.412 201.268 -52.625 200.375 C-53.051 196.541 -52.295 194.596 -51 191 C-50.805 189.566 -50.639 188.128 -50.5 186.688 C-50.335 185.471 -50.17 184.254 -50 183 C-49.34 182.67 -48.68 182.34 -48 182 C-48.33 180.68 -48.66 179.36 -49 178 C-48.34 177.67 -47.68 177.34 -47 177 C-47.33 175.68 -47.66 174.36 -48 173 C-47.34 173 -46.68 173 -46 173 C-46.495 170.525 -46.495 170.525 -47 168 C-46.34 168 -45.68 168 -45 168 C-45.206 167.134 -45.412 166.268 -45.625 165.375 C-46.052 161.53 -45.277 159.617 -44 156 C-43.663 153.711 -43.436 151.424 -43.211 149.121 C-42.969 146.687 -42.663 144.358 -42 142 C-41.34 141.67 -40.68 141.34 -40 141 C-40.33 139.68 -40.66 138.36 -41 137 C-40.34 136.67 -39.68 136.34 -39 136 C-39.33 134.68 -39.66 133.36 -40 132 C-39.34 131.67 -38.68 131.34 -38 131 C-38.33 129.68 -38.66 128.36 -39 127 C-38.34 127 -37.68 127 -37 127 C-37.206 126.134 -37.412 125.267 -37.625 124.375 C-38.044 120.605 -37.324 118.506 -36 115 C-36 114.01 -36 113.02 -36 112 C-35.34 111.67 -34.68 111.34 -34 111 C-34.33 109.68 -34.66 108.36 -35 107 C-34.34 106.67 -33.68 106.34 -33 106 C-33.33 104.68 -33.66 103.36 -34 102 C-33.34 101.67 -32.68 101.34 -32 101 C-32.33 99.68 -32.66 98.36 -33 97 C-32.34 96.67 -31.68 96.34 -31 96 C-31.33 94.68 -31.66 93.36 -32 92 C-31.34 91.67 -30.68 91.34 -30 91 C-30.33 89.68 -30.66 88.36 -31 87 C-30.34 86.67 -29.68 86.34 -29 86 C-29.33 84.68 -29.66 83.36 -30 82 C-29.34 81.67 -28.68 81.34 -28 81 C-28.186 80.278 -28.371 79.556 -28.562 78.812 C-29.025 75.837 -28.876 73.868 -28 71 C-27.34 70.67 -26.68 70.34 -26 70 C-26.33 68.68 -26.66 67.36 -27 66 C-26.34 65.67 -25.68 65.34 -25 65 C-25.33 63.35 -25.66 61.7 -26 60 C-25.34 59.67 -24.68 59.34 -24 59 C-24.33 57.35 -24.66 55.7 -25 54 C-24.34 53.67 -23.68 53.34 -23 53 C-23.33 51.35 -23.66 49.7 -24 48 C-23.34 47.67 -22.68 47.34 -22 47 C-22.33 45.35 -22.66 43.7 -23 42 C-22.34 41.67 -21.68 41.34 -21 41 C-21.33 39.35 -21.66 37.7 -22 36 C-21.34 35.67 -20.68 35.34 -20 35 C-20.227 34.34 -20.454 33.68 -20.688 33 C-21.066 29.37 -20.2 27.347 -18.812 24.039 C-17.861 21.8 -17.861 21.8 -17.188 18.5 C-12.422 4.454 -2.574 0.709 11.054 0.967 Z M22 1 C26 2 26 2 26 2 Z M121 107 C125 108 125 108 125 108 Z M117 108 C120 109 120 109 120 109 Z M153 108 C156 109 156 109 156 109 Z M106 112 C108 113 108 113 108 113 Z M104 431 C106 432 106 432 106 432 Z M-5 442 C-3.02 442 -1.04 442 1 442 C1 442.33 1 442.66 1 443 C-0.98 443 -2.96 443 -5 443 C-5 442.67 -5 442.34 -5 442 Z M129 442 C131 443 131 443 131 443 Z M93 512 C95 513 95 513 95 513 Z M119 513 C121 514 121 514 121 514 Z M98 514 C101 515 101 515 101 515 Z M102 515 C106.29 515 110.58 515 115 515 C115 515.33 115 515.66 115 516 C110.71 516 106.42 516 102 516 C102 515.67 102 515.34 102 515 Z M-41 561 C-39 562 -39 562 -39 562 Z M-62 562 C-60 563 -60 563 -60 563 Z M-45 562 C-41 563 -41 563 -41 563 Z M-59 563 C-54.38 563 -49.76 563 -45 563 C-45 563.33 -45 563.66 -45 564 C-49.62 564 -54.24 564 -59 564 C-59 563.67 -59 563.34 -59 563 Z " fill="#000000" transform="translate(1566,126)"/>
<path d="M0 0 C1.65 0 3.3 0 5 0 C5 0.33 5 0.66 5 1 C3.35 1 1.7 1 0 1 C0 0.67 0 0.34 0 0 Z M10 0 C11.98 0 13.96 0 16 0 C16 0.33 16 0.66 16 1 C14.02 1 12.04 1 10 1 C10 0.67 10 0.34 10 0 Z M8.125 0.688 C9.732 0.683 9.732 0.683 11.371 0.678 C16.457 0.713 20.313 0.868 25 3 C25 3.66 25 4.32 25 5 C26.334 5.139 26.334 5.139 27.695 5.281 C37.117 7.33 45.297 17.563 50.535 25.254 C53.567 30.336 55.022 35.197 56 41 C56.34 42.485 56.34 42.485 56.688 44 C56.791 44.66 56.894 45.32 57 46 C56.67 46.33 56.34 46.66 56 47 C56.66 47.33 57.32 47.66 58 48 C58 53.28 58 58.56 58 64 C57.34 64 56.68 64 56 64 C56.206 65.052 56.412 66.104 56.625 67.188 C57.007 71.074 56.619 72.572 55 76 C55 76.99 55 77.98 55 79 C54.34 79.33 53.68 79.66 53 80 C53.33 80.99 53.66 81.98 54 83 C53.34 83.33 52.68 83.66 52 84 C52.33 84.99 52.66 85.98 53 87 C52.34 87 51.68 87 51 87 C51.206 87.722 51.412 88.444 51.625 89.188 C52.072 92.536 51.316 93.929 50 97 C49.835 98.238 49.67 99.475 49.5 100.75 C49.335 101.822 49.17 102.895 49 104 C48.34 104.33 47.68 104.66 47 105 C47.309 105.835 47.309 105.835 47.625 106.688 C48.109 109.672 47.192 111.265 46 114 C46 114.99 46 115.98 46 117 C45.34 117.33 44.68 117.66 44 118 C44.33 118.99 44.66 119.98 45 121 C44.34 121 43.68 121 43 121 C43.186 121.743 43.371 122.485 43.562 123.25 C43.995 125.969 43.997 127.462 43 130 C42.34 130.33 41.68 130.66 41 131 C41.186 131.577 41.371 132.155 41.562 132.75 C42.047 135.242 41.895 136.64 41 139 C40.34 139.33 39.68 139.66 39 140 C39.33 141.32 39.66 142.64 40 144 C39.34 144.33 38.68 144.66 38 145 C38.33 145.99 38.66 146.98 39 148 C38.34 148.33 37.68 148.66 37 149 C37.33 150.32 37.66 151.64 38 153 C37.34 153.33 36.68 153.66 36 154 C36.186 154.577 36.371 155.155 36.562 155.75 C37.047 158.242 36.895 159.64 36 162 C35.34 162.33 34.68 162.66 34 163 C34.33 164.32 34.66 165.64 35 167 C34.34 167.33 33.68 167.66 33 168 C33.33 169.32 33.66 170.64 34 172 C33.34 172.33 32.68 172.66 32 173 C32.33 174.32 32.66 175.64 33 177 C32.34 177.33 31.68 177.66 31 178 C31.33 179.32 31.66 180.64 32 182 C31.34 182.33 30.68 182.66 30 183 C30.33 184.32 30.66 185.64 31 187 C30.34 187.33 29.68 187.66 29 188 C29.33 189.32 29.66 190.64 30 192 C29.34 192 28.68 192 28 192 C28.186 192.887 28.371 193.774 28.562 194.688 C28.983 197.875 28.957 199.954 28 203 C27.34 203.33 26.68 203.66 26 204 C26.33 205.65 26.66 207.3 27 209 C26.34 209.33 25.68 209.66 25 210 C25.33 211.65 25.66 213.3 26 215 C25.34 215.33 24.68 215.66 24 216 C24.33 217.65 24.66 219.3 25 221 C24.34 221 23.68 221 23 221 C23.33 223.31 23.66 225.62 24 228 C23.34 228 22.68 228 22 228 C22.33 230.31 22.66 232.62 23 235 C22.34 235 21.68 235 21 235 C21.33 235.99 21.66 236.98 22 238 C22.04 240.333 22.044 242.667 22 245 C21.34 245 20.68 245 20 245 C20.33 245.99 20.66 246.98 21 248 C21.097 250.757 21.14 253.489 21.133 256.246 C21.134 257.457 21.134 257.457 21.136 258.693 C21.136 260.4 21.135 262.108 21.13 263.815 C21.125 266.424 21.13 269.033 21.137 271.643 C21.136 273.302 21.135 274.962 21.133 276.621 C21.135 277.4 21.137 278.18 21.139 278.983 C21.124 282.493 20.943 285.623 20 289 C20.66 289 21.32 289 22 289 C22.125 294.75 22.125 294.75 21 297 C21.66 297 22.32 297 23 297 C23.103 297.887 23.206 298.774 23.312 299.688 C23.801 303.019 23.801 303.019 25.625 305.562 C27.348 308.618 26.829 309.686 26 313 C26.206 313.846 26.412 314.691 26.625 315.562 C27 318 27 318 25.875 320 C25.256 320.66 24.637 321.32 24 322 C23.237 322.846 22.474 323.691 21.688 324.562 C16.26 329.485 11.453 330.56 4.375 330.5 C3.58 330.494 2.786 330.487 1.967 330.48 C-14.134 329.985 -24.812 319.69 -35.531 308.715 C-38.872 305.041 -41.528 301.297 -44 297 C-44.597 295.989 -45.194 294.979 -45.809 293.938 C-49.671 287.128 -52.387 280.667 -54 273 C-53.67 272.67 -53.34 272.34 -53 272 C-53.66 271.67 -54.32 271.34 -55 271 C-54.67 270.01 -54.34 269.02 -54 268 C-54.66 267.67 -55.32 267.34 -56 267 C-55.67 265.35 -55.34 263.7 -55 262 C-55.66 261.67 -56.32 261.34 -57 261 C-57 258.69 -57 256.38 -57 254 C-56.34 254 -55.68 254 -55 254 C-55.33 253.34 -55.66 252.68 -56 252 C-56.085 250.114 -56.107 248.224 -56.098 246.336 C-56.094 245.214 -56.091 244.093 -56.088 242.938 C-56.08 241.762 -56.071 240.586 -56.062 239.375 C-56.058 238.192 -56.053 237.008 -56.049 235.789 C-56.037 232.859 -56.021 229.93 -56 227 C-56.66 226.67 -57.32 226.34 -58 226 C-57.34 226 -56.68 226 -56 226 C-56.012 225.154 -56.023 224.309 -56.035 223.438 C-56.085 217.184 -55.969 211.18 -55 205 C-55.66 205 -56.32 205 -57 205 C-57 197.74 -57 190.48 -57 183 C-56.34 183 -55.68 183 -55 183 C-54.67 181.35 -54.34 179.7 -54 178 C-54.66 178 -55.32 178 -56 178 C-56 176.02 -56 174.04 -56 172 C-55.34 172 -54.68 172 -54 172 C-54.66 168.04 -55.32 164.08 -56 160 C-59.518 165.418 -62.957 170.8 -66 176.5 C-68.557 181.287 -71.4 185.825 -74.344 190.383 C-76.737 194.165 -78.878 198.061 -81 202 C-82.02 203.875 -83.041 205.75 -84.062 207.625 C-84.567 208.551 -85.071 209.476 -85.59 210.43 C-87.353 213.644 -89.168 216.824 -91 220 C-91.667 221.166 -92.334 222.333 -93 223.5 C-93.331 224.079 -93.663 224.658 -94.004 225.254 C-94.988 226.978 -95.963 228.708 -96.938 230.438 C-98.352 232.92 -99.839 235.341 -101.375 237.75 C-103.906 241.763 -106.151 245.905 -108.398 250.082 C-110.04 253.072 -111.759 256.004 -113.5 258.938 C-116.471 263.982 -119.092 269.14 -121.668 274.395 C-123.223 277.436 -125.078 280.177 -127 283 C-127.973 284.742 -128.929 286.493 -129.875 288.25 C-149.798 325.107 -149.798 325.107 -166 330 C-170.981 330.767 -175.997 330.907 -181.029 330.974 C-182.723 330.996 -184.417 331.053 -186.109 331.117 C-190.838 331.246 -194.562 330.869 -199 329 C-199 328.34 -199 327.68 -199 327 C-199.928 326.959 -200.856 326.918 -201.812 326.875 C-211.499 325.449 -219.872 318.249 -227 312 C-227.712 311.384 -228.423 310.768 -229.156 310.133 C-237.069 302.799 -243.472 293.041 -244 282 C-243.67 281.34 -243.34 280.68 -243 280 C-243.66 280 -244.32 280 -245 280 C-245 274.72 -245 269.44 -245 264 C-244.34 264 -243.68 264 -243 264 C-243.186 262.928 -243.371 261.855 -243.562 260.75 C-244.15 255.717 -244.15 255.717 -243 253 C-242.34 252.67 -241.68 252.34 -241 252 C-241.206 251.443 -241.412 250.886 -241.625 250.312 C-242.109 247.328 -241.192 245.735 -240 243 C-240 242.01 -240 241.02 -240 240 C-239.34 239.67 -238.68 239.34 -238 239 C-238.206 238.443 -238.412 237.886 -238.625 237.312 C-239.114 234.294 -238.155 232.822 -237 230 C-236.56 227.342 -236.298 224.68 -236 222 C-235.562 219.562 -235.562 219.562 -235 218 C-234.34 217.67 -233.68 217.34 -233 217 C-233.33 215.68 -233.66 214.36 -234 213 C-233.34 212.67 -232.68 212.34 -232 212 C-232.33 211.01 -232.66 210.02 -233 209 C-232.34 208.67 -231.68 208.34 -231 208 C-231.186 207.423 -231.371 206.845 -231.562 206.25 C-232.047 203.758 -231.895 202.36 -231 200 C-230.34 199.67 -229.68 199.34 -229 199 C-229.206 198.443 -229.412 197.886 -229.625 197.312 C-230.114 194.294 -229.155 192.822 -228 190 C-227.802 188.587 -227.637 187.17 -227.5 185.75 C-227.335 184.512 -227.17 183.275 -227 182 C-226.34 181.67 -225.68 181.34 -225 181 C-225.33 180.01 -225.66 179.02 -226 178 C-225.34 178 -224.68 178 -224 178 C-224.33 176.35 -224.66 174.7 -225 173 C-224.34 172.67 -223.68 172.34 -223 172 C-223.206 171.443 -223.412 170.886 -223.625 170.312 C-224.114 167.294 -223.155 165.822 -222 163 C-221.802 161.587 -221.637 160.17 -221.5 158.75 C-221.335 157.512 -221.17 156.275 -221 155 C-220.34 154.67 -219.68 154.34 -219 154 C-219.186 153.423 -219.371 152.845 -219.562 152.25 C-220.047 149.758 -219.895 148.36 -219 146 C-218.34 145.67 -217.68 145.34 -217 145 C-217.186 144.423 -217.371 143.845 -217.562 143.25 C-218.047 140.758 -217.895 139.36 -217 137 C-216.34 136.67 -215.68 136.34 -215 136 C-215.186 135.423 -215.371 134.845 -215.562 134.25 C-216.047 131.758 -215.895 130.36 -215 128 C-214.01 127.505 -214.01 127.505 -213 127 C-213.33 125.68 -213.66 124.36 -214 123 C-213.01 122.505 -213.01 122.505 -212 122 C-212.33 121.01 -212.66 120.02 -213 119 C-212.34 118.67 -211.68 118.34 -211 118 C-211.33 116.68 -211.66 115.36 -212 114 C-211.34 113.67 -210.68 113.34 -210 113 C-210.186 112.423 -210.371 111.845 -210.562 111.25 C-211.047 108.758 -210.895 107.36 -210 105 C-209.34 104.67 -208.68 104.34 -208 104 C-208.206 103.464 -208.412 102.928 -208.625 102.375 C-209.132 99.167 -208.092 97.02 -207 94 C-207 93.01 -207 92.02 -207 91 C-206.34 90.67 -205.68 90.34 -205 90 C-205.33 88.68 -205.66 87.36 -206 86 C-205.34 85.67 -204.68 85.34 -204 85 C-204.33 84.01 -204.66 83.02 -205 82 C-204.34 81.67 -203.68 81.34 -203 81 C-203.33 79.68 -203.66 78.36 -204 77 C-203.34 76.67 -202.68 76.34 -202 76 C-202.206 75.464 -202.412 74.928 -202.625 74.375 C-203.135 71.146 -202.083 69.067 -201 66 C-200.856 64.907 -200.711 63.814 -200.562 62.688 C-198.825 51.295 -193.713 41.773 -184.93 34.277 C-182.89 32.927 -181.387 32.451 -179 32 C-178.392 31.818 -177.783 31.636 -177.156 31.449 C-174.25 30.844 -171.467 30.83 -168.5 30.812 C-167.376 30.798 -166.252 30.784 -165.094 30.77 C-160.747 31.093 -158.583 32.612 -155 35 C-153.989 35.082 -152.979 35.165 -151.938 35.25 C-144.044 36.201 -136.442 42.475 -131 48 C-130.67 48.66 -130.34 49.32 -130 50 C-129.01 51.454 -129.01 51.454 -128 52.938 C-126 56 -126 56 -125 59 C-125.33 59.33 -125.66 59.66 -126 60 C-125.34 60.33 -124.68 60.66 -124 61 C-124 61.66 -124 62.32 -124 63 C-124.66 63 -125.32 63 -126 63 C-125.505 63.392 -125.01 63.784 -124.5 64.188 C-123 66 -123 66 -122.625 68.5 C-123.057 71.378 -123.758 72.225 -126 74 C-125.34 74 -124.68 74 -124 74 C-124 74.99 -124 75.98 -124 77 C-124.99 77.495 -124.99 77.495 -126 78 C-125.814 78.598 -125.629 79.196 -125.438 79.812 C-125 82 -125 82 -126 85 C-126.66 85 -127.32 85 -128 85 C-127.691 85.804 -127.691 85.804 -127.375 86.625 C-126.861 89.88 -127.733 92 -129 95 C-129.99 95.495 -129.99 95.495 -131 96 C-131 97.32 -131 98.64 -131 100 C-131.375 102.688 -131.375 102.688 -132 105 C-132.99 105.495 -132.99 105.495 -134 106 C-134 107.32 -134 108.64 -134 110 C-134 110.66 -134 111.32 -134 112 C-134.99 112.495 -134.99 112.495 -136 113 C-136 114.32 -136 115.64 -136 117 C-137.022 125.174 -137.022 125.174 -138 128 C-138.99 128.495 -138.99 128.495 -140 129 C-139.67 129.99 -139.34 130.98 -139 132 C-139.66 132.33 -140.32 132.66 -141 133 C-140.67 134.32 -140.34 135.64 -140 137 C-140.66 137.33 -141.32 137.66 -142 138 C-141.67 139.32 -141.34 140.64 -141 142 C-141.66 142 -142.32 142 -143 142 C-142.505 145.465 -142.505 145.465 -142 149 C-142.66 149 -143.32 149 -144 149 C-143.67 149.66 -143.34 150.32 -143 151 C-142.929 153.207 -142.916 155.417 -142.938 157.625 C-142.947 158.814 -142.956 160.002 -142.965 161.227 C-142.976 162.142 -142.988 163.057 -143 164 C-138.125 160.198 -134.825 156.587 -131.539 151.367 C-129.936 148.902 -128.199 146.618 -126.375 144.312 C-123.735 140.971 -121.347 137.555 -119 134 C-116.359 130.315 -113.678 126.659 -111 123 C-107.147 117.723 -103.307 112.44 -99.537 107.103 C-95.13 100.882 -90.634 94.727 -86.062 88.625 C-85.507 87.869 -84.951 87.113 -84.378 86.333 C-83.852 85.638 -83.327 84.943 -82.785 84.227 C-82.32 83.603 -81.855 82.98 -81.375 82.338 C-80 81 -80 81 -77 81 C-77.33 80.01 -77.66 79.02 -78 78 C-76.453 75.52 -76.453 75.52 -74.25 72.812 C-73.533 71.911 -72.817 71.01 -72.078 70.082 C-71.392 69.395 -70.707 68.708 -70 68 C-69.01 68 -68.02 68 -67 68 C-67.33 67.01 -67.66 66.02 -68 65 C-65.75 61.812 -65.75 61.812 -63 59 C-62.01 59 -61.02 59 -60 59 C-60.33 58.01 -60.66 57.02 -61 56 C-59.777 54.238 -59.777 54.238 -57.938 52.312 C-55.46 49.629 -53.149 46.953 -51 44 C-48.414 40.479 -45.605 37.236 -42.695 33.98 C-41.129 32.151 -39.755 30.283 -38.375 28.312 C-31.096 18.491 -21.88 9.65 -11 4 C-9.484 3.178 -9.484 3.178 -7.938 2.34 C-2.795 0.195 2.648 0.605 8.125 0.688 Z M-166 32 C-162 33 -162 33 -162 33 Z M-54 156 C-54.33 156.99 -54.66 157.98 -55 159 C-54.34 159 -53.68 159 -53 159 C-53.33 158.01 -53.66 157.02 -54 156 Z M25 4 C27 5 27 5 27 5 Z M-175 30 C-172.36 30 -169.72 30 -167 30 C-167 30.33 -167 30.66 -167 31 C-169.64 31 -172.28 31 -175 31 C-175 30.67 -175 30.34 -175 30 Z M-181 32 C-179 33 -179 33 -179 33 Z M-158 33 C-155 34 -155 34 -155 34 Z M-155 34 C-153 35 -153 35 -153 35 Z M-201 327 C-199 328 -199 328 -199 328 Z M-171 330 C-168 331 -168 331 -168 331 Z M-1 330 C2.63 330 6.26 330 10 330 C10 330.33 10 330.66 10 331 C6.37 331 2.74 331 -1 331 C-1 330.67 -1 330.34 -1 330 Z M-189 331 C-187.02 331 -185.04 331 -183 331 C-183 331.33 -183 331.66 -183 332 C-184.98 332 -186.96 332 -189 332 C-189 331.67 -189 331.34 -189 331 Z M-176 331 C-174.35 331 -172.7 331 -171 331 C-171 331.33 -171 331.66 -171 332 C-172.65 332 -174.3 332 -176 332 C-176 331.67 -176 331.34 -176 331 Z " fill="#000000" transform="translate(2120,310)"/>
<path d="M0 0 C4 1 4 1 4 1 Z M11.022 0.931 C12.788 0.993 14.554 1.011 16.32 1.023 C29.264 1.463 38.345 8.889 47 18 C52.722 24.969 57.333 33.889 58 43 C57.67 43.99 57.34 44.98 57 46 C57.66 46 58.32 46 59 46 C59 47.65 59 49.3 59 51 C58.34 51 57.68 51 57 51 C57 54.3 57 57.6 57 61 C57.66 61 58.32 61 59 61 C59 62.65 59 64.3 59 66 C58.34 66 57.68 66 57 66 C57.186 66.908 57.371 67.815 57.562 68.75 C57.957 71.68 58.098 73.304 57 76 C56.34 76.33 55.68 76.66 55 77 C55.33 77.99 55.66 78.98 56 80 C55.34 80.33 54.68 80.66 54 81 C54.309 81.835 54.309 81.835 54.625 82.688 C55.114 85.703 54.174 87.197 53 90 C52.835 91.238 52.67 92.475 52.5 93.75 C52.335 94.822 52.17 95.895 52 97 C51.34 97.33 50.68 97.66 50 98 C50.33 98.99 50.66 99.98 51 101 C50.34 101.33 49.68 101.66 49 102 C49.309 102.835 49.309 102.835 49.625 103.688 C50.114 106.703 49.174 108.197 48 111 C47.835 112.238 47.67 113.475 47.5 114.75 C47.335 115.822 47.17 116.895 47 118 C46.34 118.33 45.68 118.66 45 119 C45.186 119.577 45.371 120.155 45.562 120.75 C46.047 123.242 45.895 124.64 45 127 C44.34 127.33 43.68 127.66 43 128 C43.33 128.99 43.66 129.98 44 131 C43.34 131 42.68 131 42 131 C42.206 131.701 42.412 132.403 42.625 133.125 C43.081 136.619 42.209 138.728 41 142 C41 142.99 41 143.98 41 145 C40.34 145.33 39.68 145.66 39 146 C39.186 146.577 39.371 147.155 39.562 147.75 C40.047 150.242 39.895 151.64 39 154 C38.34 154.33 37.68 154.66 37 155 C37.33 156.32 37.66 157.64 38 159 C37.34 159.33 36.68 159.66 36 160 C36.186 160.577 36.371 161.155 36.562 161.75 C37.04 164.207 36.757 165.644 36 168 C35.34 168 34.68 168 34 168 C34.33 169.65 34.66 171.3 35 173 C34.34 173 33.68 173 33 173 C33.309 174.299 33.309 174.299 33.625 175.625 C34.045 179.405 33.302 181.476 32 185 C32 186.32 32 187.64 32 189 C31.34 189.33 30.68 189.66 30 190 C30.33 191.32 30.66 192.64 31 194 C30.34 194.33 29.68 194.66 29 195 C29.33 196.32 29.66 197.64 30 199 C29.34 199 28.68 199 28 199 C28.33 200.98 28.66 202.96 29 205 C28.34 205.33 27.68 205.66 27 206 C27.33 207.65 27.66 209.3 28 211 C27.34 211.33 26.68 211.66 26 212 C26.33 213.65 26.66 215.3 27 217 C26.34 217.33 25.68 217.66 25 218 C25.33 219.65 25.66 221.3 26 223 C25.34 223 24.68 223 24 223 C24.33 225.31 24.66 227.62 25 230 C24.34 230 23.68 230 23 230 C23.33 232.64 23.66 235.28 24 238 C23.34 238 22.68 238 22 238 C21.67 239.32 21.34 240.64 21 242 C21.66 242 22.32 242 23 242 C23 243.98 23 245.96 23 248 C22.34 248 21.68 248 21 248 C20.67 249.65 20.34 251.3 20 253 C20.66 253 21.32 253 22 253 C22 261.25 22 269.5 22 278 C21.34 278 20.68 278 20 278 C20.33 280.31 20.66 282.62 21 285 C21.66 285 22.32 285 23 285 C23 286.98 23 288.96 23 291 C22.34 291 21.68 291 21 291 C21.516 291.392 22.031 291.784 22.562 292.188 C23.037 292.786 23.511 293.384 24 294 C23.688 296.688 23.688 296.688 23 299 C23.66 299.33 24.32 299.66 25 300 C26.445 303.613 27 306.067 27 310 C27.66 310.33 28.32 310.66 29 311 C29.082 314.044 28.976 316.072 28 319 C27.01 319 26.02 319 25 319 C25.33 319.99 25.66 320.98 26 322 C20.778 327.618 15.494 328.736 8.094 329.017 C2.358 329.121 -3.315 328.783 -9 328 C-9 327.34 -9 326.68 -9 326 C-9.888 325.911 -10.776 325.822 -11.691 325.73 C-15.405 324.911 -17.065 323.756 -19.938 321.312 C-21.216 320.235 -21.216 320.235 -22.52 319.137 C-23.338 318.432 -24.157 317.726 -25 317 C-26.089 316.112 -26.089 316.112 -27.199 315.207 C-28.843 313.856 -30.429 312.435 -32 311 C-32 310.34 -32 309.68 -32 309 C-32.846 308.361 -33.691 307.721 -34.562 307.062 C-43.057 300.275 -48.235 288.271 -51 278 C-51.588 276.917 -51.588 276.917 -52.188 275.812 C-53.223 273.502 -52.834 272.336 -52 270 C-52.66 269.67 -53.32 269.34 -54 269 C-53.67 267.35 -53.34 265.7 -53 264 C-53.66 264 -54.32 264 -55 264 C-54.67 261.69 -54.34 259.38 -54 257 C-54.66 257 -55.32 257 -56 257 C-56 254.69 -56 252.38 -56 250 C-55.34 250 -54.68 250 -54 250 C-54 242.08 -54 234.16 -54 226 C-54.66 226 -55.32 226 -56 226 C-56 214.45 -56 202.9 -56 191 C-55.34 191 -54.68 191 -54 191 C-54.031 189.577 -54.031 189.577 -54.062 188.125 C-54 185 -54 185 -53 183 C-53.66 183 -54.32 183 -55 183 C-55 180.36 -55 177.72 -55 175 C-54.34 175 -53.68 175 -53 175 C-53.33 174.01 -53.66 173.02 -54 172 C-54.128 169.326 -54.044 166.679 -54 164 C-53.34 164 -52.68 164 -52 164 C-51.67 162.35 -51.34 160.7 -51 159 C-52.915 159.167 -52.915 159.167 -55 160 C-56.587 161.955 -56.587 161.955 -57.875 164.438 C-58.388 165.344 -58.901 166.25 -59.43 167.184 C-59.948 168.113 -60.466 169.042 -61 170 C-61.994 171.671 -62.993 173.337 -64 175 C-64.494 175.824 -64.987 176.647 -65.496 177.496 C-66.506 179.178 -67.519 180.857 -68.535 182.535 C-71.362 187.213 -74.087 191.928 -76.719 196.719 C-78.099 199.176 -79.541 201.589 -81 204 C-83.309 207.819 -85.508 211.682 -87.656 215.594 C-89.211 218.378 -90.822 221.126 -92.438 223.875 C-95.744 229.522 -98.893 235.241 -102 241 C-103.995 244.669 -105.996 248.335 -108 252 C-108.433 252.795 -108.866 253.591 -109.312 254.41 C-111.263 257.964 -113.26 261.456 -115.438 264.875 C-117.994 268.906 -120.262 273.07 -122.527 277.27 C-124.254 280.472 -126.019 283.652 -127.793 286.828 C-128.595 288.272 -129.39 289.72 -130.176 291.172 C-138.583 306.617 -150.106 325.635 -168 331 C-172.041 331.443 -176.004 331.383 -180.062 331.25 C-181.119 331.232 -182.175 331.214 -183.264 331.195 C-185.843 331.149 -188.421 331.083 -191 331 C-191 330.34 -191 329.68 -191 329 C-192.423 329.062 -192.423 329.062 -193.875 329.125 C-197 329 -197 329 -199 327 C-200.958 325.889 -200.958 325.889 -203.172 325.691 C-206.934 324.772 -209.978 322.936 -213.25 320.938 C-213.909 320.538 -214.568 320.139 -215.246 319.728 C-220.615 316.397 -225.789 312.759 -230 308 C-230 307.34 -230 306.68 -230 306 C-231.184 304.85 -232.368 303.701 -233.559 302.559 C-237.056 298.777 -240.159 294.144 -241 289 C-240.67 288.67 -240.34 288.34 -240 288 C-240.66 287.67 -241.32 287.34 -242 287 C-243.294 279.588 -243.294 279.588 -242 277 C-242.66 277 -243.32 277 -244 277 C-244 274.03 -244 271.06 -244 268 C-243.34 268 -242.68 268 -242 268 C-242.33 265.03 -242.66 262.06 -243 259 C-242.34 258.67 -241.68 258.34 -241 258 C-241.33 256.68 -241.66 255.36 -242 254 C-241.34 253.67 -240.68 253.34 -240 253 C-240.33 252.01 -240.66 251.02 -241 250 C-240.34 249.67 -239.68 249.34 -239 249 C-239.33 248.01 -239.66 247.02 -240 246 C-239.34 246 -238.68 246 -238 246 C-238.206 245.299 -238.412 244.597 -238.625 243.875 C-239.086 240.343 -238.2 238.333 -237 235 C-236.835 233.742 -236.67 232.484 -236.5 231.188 C-236.335 230.136 -236.17 229.084 -236 228 C-235.34 227.67 -234.68 227.34 -234 227 C-234.186 226.423 -234.371 225.845 -234.562 225.25 C-235.047 222.758 -234.895 221.36 -234 219 C-233.34 218.67 -232.68 218.34 -232 218 C-232.33 217.01 -232.66 216.02 -233 215 C-232.34 215 -231.68 215 -231 215 C-231.206 214.299 -231.412 213.597 -231.625 212.875 C-232.086 209.343 -231.2 207.333 -230 204 C-229.835 202.742 -229.67 201.484 -229.5 200.188 C-229.335 199.136 -229.17 198.084 -229 197 C-228.34 196.67 -227.68 196.34 -227 196 C-227.186 195.423 -227.371 194.845 -227.562 194.25 C-228.047 191.758 -227.895 190.36 -227 188 C-226.34 187.67 -225.68 187.34 -225 187 C-225.186 186.423 -225.371 185.845 -225.562 185.25 C-226.047 182.758 -225.895 181.36 -225 179 C-224.34 178.67 -223.68 178.34 -223 178 C-223.186 177.423 -223.371 176.845 -223.562 176.25 C-224.047 173.758 -223.895 172.36 -223 170 C-222.34 169.67 -221.68 169.34 -221 169 C-221.186 168.423 -221.371 167.845 -221.562 167.25 C-222.047 164.758 -221.895 163.36 -221 161 C-220.34 160.67 -219.68 160.34 -219 160 C-219.186 159.423 -219.371 158.845 -219.562 158.25 C-220.047 155.758 -219.895 154.36 -219 152 C-218.34 151.67 -217.68 151.34 -217 151 C-217.206 150.464 -217.412 149.928 -217.625 149.375 C-218.135 146.148 -217.066 144.079 -216 141 C-215.574 138.341 -215.302 135.678 -215 133 C-214.562 130.562 -214.562 130.562 -214 129 C-213.01 128.505 -213.01 128.505 -212 128 C-212.186 127.423 -212.371 126.845 -212.562 126.25 C-213.047 123.758 -212.895 122.36 -212 120 C-211.34 119.67 -210.68 119.34 -210 119 C-210.206 118.464 -210.412 117.928 -210.625 117.375 C-211.135 114.148 -210.066 112.079 -209 109 C-208.574 106.341 -208.302 103.678 -208 101 C-207.562 98.562 -207.562 98.562 -207 97 C-206.34 96.67 -205.68 96.34 -205 96 C-205.33 94.68 -205.66 93.36 -206 92 C-205.34 91.67 -204.68 91.34 -204 91 C-204.33 90.01 -204.66 89.02 -205 88 C-204.34 88 -203.68 88 -203 88 C-203.33 86.35 -203.66 84.7 -204 83 C-203.34 82.67 -202.68 82.34 -202 82 C-202.206 81.464 -202.412 80.928 -202.625 80.375 C-203.132 77.167 -202.092 75.02 -201 72 C-201 71.01 -201 70.02 -201 69 C-200.34 68.67 -199.68 68.34 -199 68 C-199.186 67.423 -199.371 66.845 -199.562 66.25 C-200.047 63.758 -199.895 62.36 -199 60 C-198.34 59.67 -197.68 59.34 -197 59 C-197 57.68 -197 56.36 -197 55 C-195.194 45.791 -189.661 38.335 -182 33 C-179.084 31.314 -177.032 30.757 -173.672 30.805 C-172.873 30.811 -172.073 30.818 -171.25 30.824 C-170.425 30.841 -169.6 30.858 -168.75 30.875 C-167.91 30.884 -167.069 30.893 -166.203 30.902 C-164.135 30.926 -162.068 30.962 -160 31 C-159.505 31.99 -159.505 31.99 -159 33 C-158.113 32.959 -157.226 32.918 -156.312 32.875 C-153.027 32.999 -150.946 33.614 -148 35 C-148 35.66 -148 36.32 -148 37 C-147.175 37.041 -146.35 37.082 -145.5 37.125 C-137.709 39.073 -129.909 46.302 -125.711 53.082 C-121.768 60.726 -120.514 68.847 -122.938 77.25 C-123.288 78.158 -123.639 79.065 -124 80 C-124.186 81.609 -124.186 81.609 -124.375 83.25 C-125.066 87.397 -126.46 90.783 -128.086 94.637 C-129.152 97.394 -129.583 100.081 -130 103 C-130.667 104.333 -131.333 105.667 -132 107 C-132.165 108.052 -132.33 109.104 -132.5 110.188 C-132.665 111.116 -132.83 112.044 -133 113 C-133.99 113.495 -133.99 113.495 -135 114 C-135 115.32 -135 116.64 -135 118 C-135.365 121.347 -135.719 124.314 -137 127.438 C-137.945 129.86 -138.245 131.688 -138.5 134.25 C-138.665 135.488 -138.83 136.725 -139 138 C-139.66 138.33 -140.32 138.66 -141 139 C-140.505 141.475 -140.505 141.475 -140 144 C-140.66 144 -141.32 144 -142 144 C-141.505 147.465 -141.505 147.465 -141 151 C-141.66 151 -142.32 151 -143 151 C-142.916 151.687 -142.832 152.374 -142.746 153.082 C-142.593 154.434 -142.593 154.434 -142.438 155.812 C-142.333 156.706 -142.229 157.599 -142.121 158.52 C-142 161 -142 161 -143 164 C-134.979 159.77 -129.786 151.498 -125 144 C-123.261 141.483 -121.504 138.979 -119.738 136.48 C-118.654 134.934 -117.586 133.375 -116.543 131.801 C-115.434 130.15 -114.226 128.566 -113 127 C-112.01 127 -111.02 127 -110 127 C-110.33 126.01 -110.66 125.02 -111 124 C-109.488 121.73 -109.488 121.73 -107.312 119.188 C-104.29 115.569 -101.597 111.937 -99 108 C-97.884 106.556 -96.758 105.119 -95.625 103.688 C-93.306 100.744 -91.154 97.775 -89.125 94.625 C-86.111 90.003 -82.651 85.825 -79.113 81.598 C-77.32 79.393 -75.703 77.172 -74.125 74.812 C-73.424 73.884 -72.723 72.956 -72 72 C-71.01 72 -70.02 72 -69 72 C-69.33 71.01 -69.66 70.02 -70 69 C-68.41 66.652 -68.41 66.652 -66.062 63.938 C-65.23 62.958 -64.397 61.978 -63.539 60.969 C-62.701 59.989 -61.863 59.009 -61 58 C-59.638 56.319 -58.283 54.632 -56.938 52.938 C-56.283 52.116 -55.628 51.295 -54.953 50.449 C-53.986 49.237 -53.986 49.237 -53 48 C-52.064 46.834 -52.064 46.834 -51.109 45.645 C-50.475 44.854 -49.841 44.064 -49.188 43.25 C-48.525 42.426 -47.862 41.603 -47.18 40.754 C-45.598 38.755 -44.044 36.747 -42.508 34.715 C-28.492 16.284 -13.704 -0.004 11.022 0.931 Z M19 1 C22 2 22 2 22 2 Z M-175 30 C-171.37 30 -167.74 30 -164 30 C-164 30.33 -164 30.66 -164 31 C-167.63 31 -171.26 31 -175 31 C-175 30.67 -175 30.34 -175 30 Z M-159 32 C-156 33 -156 33 -156 33 Z M-148 36 C-146 37 -146 37 -146 37 Z M-201 326 C-199 327 -199 327 -199 327 Z M-11 326 C-9 327 -9 327 -9 327 Z M-6 328 C-3 329 -3 329 -3 329 Z M14 328 C16 329 16 329 16 329 Z M-194 329 C-191 330 -191 330 -191 330 Z M-3 329 C-1.35 329 0.3 329 2 329 C2 329.33 2 329.66 2 330 C0.35 330 -1.3 330 -3 330 C-3 329.67 -3 329.34 -3 329 Z M10 329 C14 330 14 330 14 330 Z M-186 331 C-181.05 331 -176.1 331 -171 331 C-171 331.33 -171 331.66 -171 332 C-175.95 332 -180.9 332 -186 332 C-186 331.67 -186 331.34 -186 331 Z " fill="#000000" transform="translate(1389,311)"/>
<path d="M0 0 C6.27 0 12.54 0 19 0 C19 0.33 19 0.66 19 1 C12.73 1 6.46 1 0 1 C0 0.67 0 0.34 0 0 Z M7.875 1.125 C9.393 1.218 9.393 1.218 10.941 1.312 C13.965 1.506 16.981 1.747 20 2 C21.515 2.112 21.515 2.112 23.061 2.225 C24.029 2.302 24.998 2.378 25.996 2.457 C26.859 2.524 27.722 2.591 28.611 2.659 C36.595 3.798 41.899 9.122 47 15 C50.446 19.824 52.514 25.004 52 31 C51.505 31.495 51.505 31.495 51 32 C51 34.03 51.004 36.061 51.062 38.09 C51 40 51 40 50 42 C50.66 42 51.32 42 52 42 C52.158 50.063 52.158 50.063 51 54 C50.01 54.495 50.01 54.495 49 55 C49.495 56.98 49.495 56.98 50 59 C49.01 59.495 49.01 59.495 48 60 C48.186 60.722 48.371 61.444 48.562 62.188 C49.025 65.163 48.876 67.132 48 70 C47.01 70.495 47.01 70.495 46 71 C46.33 72.32 46.66 73.64 47 75 C46.34 75 45.68 75 45 75 C45.33 76.98 45.66 78.96 46 81 C45.34 81 44.68 81 44 81 C44.33 82.98 44.66 84.96 45 87 C44.01 87.495 44.01 87.495 43 88 C43.33 89.65 43.66 91.3 44 93 C43.01 93.495 43.01 93.495 42 94 C42.33 95.65 42.66 97.3 43 99 C42.01 99.495 42.01 99.495 41 100 C41.33 100.33 41.66 100.66 42 101 C42.041 102.666 42.043 104.334 42 106 C41.01 106.495 41.01 106.495 40 107 C40.227 107.763 40.454 108.526 40.688 109.312 C40.791 110.199 40.894 111.086 41 112 C39.562 113.812 39.562 113.812 38 115 C38.66 115 39.32 115 40 115 C40 116.32 40 117.64 40 119 C39.34 119 38.68 119 38 119 C38.495 122.465 38.495 122.465 39 126 C38.34 126 37.68 126 37 126 C37.495 129.465 37.495 129.465 38 133 C37.34 133 36.68 133 36 133 C36.33 135.64 36.66 138.28 37 141 C36.34 141 35.68 141 35 141 C35.33 141.66 35.66 142.32 36 143 C36.04 145 36.043 147 36 149 C35.34 149 34.68 149 34 149 C34.33 149.66 34.66 150.32 35 151 C35.465 157.399 35.465 157.399 33.5 159.938 C33.005 160.288 32.51 160.639 32 161 C32.66 161 33.32 161 34 161 C34 162.65 34 164.3 34 166 C33.34 166 32.68 166 32 166 C31.67 167.32 31.34 168.64 31 170 C31.66 170 32.32 170 33 170 C33 171.98 33 173.96 33 176 C32.34 176 31.68 176 31 176 C30.67 177.32 30.34 178.64 30 180 C30.66 180 31.32 180 32 180 C32 181.98 32 183.96 32 186 C31.34 186 30.68 186 30 186 C30.165 186.495 30.33 186.99 30.5 187.5 C31.207 191.034 31.06 194.397 31 198 C30.34 198 29.68 198 29 198 C29.165 198.495 29.33 198.99 29.5 199.5 C30.207 203.034 30.06 206.397 30 210 C29.34 210 28.68 210 28 210 C28.164 210.541 28.327 211.083 28.496 211.641 C29.086 214.402 29.096 216.928 29.062 219.75 C29.053 220.735 29.044 221.72 29.035 222.734 C29.024 223.482 29.012 224.23 29 225 C28.34 225 27.68 225 27 225 C27.246 225.781 27.246 225.781 27.496 226.578 C28.141 229.676 28.094 232.588 28.062 235.75 C28.053 236.92 28.044 238.091 28.035 239.297 C28.024 240.189 28.012 241.081 28 242 C27.34 242 26.68 242 26 242 C25.505 244.97 25.505 244.97 25 248 C25.66 248 26.32 248 27 248 C27 249.65 27 251.3 27 253 C26.34 253 25.68 253 25 253 C25.33 254.32 25.66 255.64 26 257 C26.66 257 27.32 257 28 257 C27.959 257.722 27.918 258.444 27.875 259.188 C27.832 262.013 27.832 262.013 29.062 264.438 C30.236 267.645 29.763 269.72 29 273 C29.66 273 30.32 273 31 273 C31 277.62 31 282.24 31 287 C30.34 287 29.68 287 29 287 C29.33 288.98 29.66 290.96 30 293 C29.01 293 28.02 293 27 293 C26.722 294.145 26.722 294.145 26.438 295.312 C24.801 298.372 23.394 299.174 20.218 300.436 C15.733 301.577 11.203 301.105 6.625 300.812 C5.635 300.768 4.645 300.724 3.625 300.678 C-2.433 300.354 -8.143 299.579 -14 298 C-15.609 297.58 -15.609 297.58 -17.25 297.152 C-26.217 293.395 -32.395 283.676 -36 275 C-36.899 272.017 -37.495 269.07 -38 266 C-38.2 265.277 -38.4 264.554 -38.605 263.809 C-38.736 263.212 -38.866 262.615 -39 262 C-38.67 261.67 -38.34 261.34 -38 261 C-38.66 260.67 -39.32 260.34 -40 260 C-40 258.68 -40 257.36 -40 256 C-39.34 256 -38.68 256 -38 256 C-38.33 254.68 -38.66 253.36 -39 252 C-39.66 252 -40.32 252 -41 252 C-41 249.36 -41 246.72 -41 244 C-40.34 244 -39.68 244 -39 244 C-39.33 241.69 -39.66 239.38 -40 237 C-40.66 237 -41.32 237 -42 237 C-42.029 233.188 -42.047 229.375 -42.062 225.562 C-42.071 224.474 -42.079 223.385 -42.088 222.264 C-42.091 221.229 -42.094 220.195 -42.098 219.129 C-42.103 218.171 -42.108 217.212 -42.114 216.225 C-42 214 -42 214 -41 213 C-40.899 210.418 -40.86 207.864 -40.867 205.281 C-40.866 204.508 -40.865 203.735 -40.864 202.939 C-40.864 201.301 -40.865 199.663 -40.87 198.026 C-40.875 195.511 -40.87 192.996 -40.863 190.48 C-40.864 188.893 -40.865 187.306 -40.867 185.719 C-40.865 184.961 -40.863 184.204 -40.861 183.424 C-40.555 179.92 -40.555 179.92 -42 177 C-42.087 175.292 -42.107 173.581 -42.098 171.871 C-42.094 170.837 -42.091 169.802 -42.088 168.736 C-42.075 167.103 -42.075 167.103 -42.062 165.438 C-42.058 164.345 -42.053 163.253 -42.049 162.127 C-42.037 159.418 -42.021 156.709 -42 154 C-41.34 154 -40.68 154 -40 154 C-39.67 151.69 -39.34 149.38 -39 147 C-39.66 147 -40.32 147 -41 147 C-41 143.7 -41 140.4 -41 137 C-40.34 137 -39.68 137 -39 137 C-38.67 135.35 -38.34 133.7 -38 132 C-38.66 132 -39.32 132 -40 132 C-40 129.36 -40 126.72 -40 124 C-39.34 124 -38.68 124 -38 124 C-38.165 123.484 -38.33 122.969 -38.5 122.438 C-39.15 119.266 -39.062 116.228 -39 113 C-38.34 113 -37.68 113 -37 113 C-37.33 112.01 -37.66 111.02 -38 110 C-38.04 107.667 -38.044 105.333 -38 103 C-37.34 103 -36.68 103 -36 103 C-36.33 102.34 -36.66 101.68 -37 101 C-37.04 99 -37.043 97 -37 95 C-36.34 95 -35.68 95 -35 95 C-35.33 94.34 -35.66 93.68 -36 93 C-36.04 91 -36.043 89 -36 87 C-35.01 86.505 -35.01 86.505 -34 86 C-34.33 85.67 -34.66 85.34 -35 85 C-35.041 83.334 -35.043 81.666 -35 80 C-34.01 79.505 -34.01 79.505 -33 79 C-33.495 76.525 -33.495 76.525 -34 74 C-33.34 74 -32.68 74 -32 74 C-32.33 71.69 -32.66 69.38 -33 67 C-32.01 66.505 -32.01 66.505 -31 66 C-31.33 64.35 -31.66 62.7 -32 61 C-31.01 60.505 -31.01 60.505 -30 60 C-30.206 59.299 -30.412 58.597 -30.625 57.875 C-31.081 54.376 -30.189 52.287 -29 49 C-29 47.68 -29 46.36 -29 45 C-28.01 44.505 -28.01 44.505 -27 44 C-27.33 42.68 -27.66 41.36 -28 40 C-27.01 39.505 -27.01 39.505 -26 39 C-26.278 38.134 -26.278 38.134 -26.562 37.25 C-27.047 34.758 -26.895 33.36 -26 31 C-25.34 30.67 -24.68 30.34 -24 30 C-24.33 29.01 -24.66 28.02 -25 27 C-24.34 27 -23.68 27 -23 27 C-23.247 26.34 -23.495 25.68 -23.75 25 C-24.312 18.257 -19.373 12.891 -15.27 7.957 C-7.814 1.528 -1.82 0.316 7.875 1.125 Z M14 299 C18 300 18 300 18 300 Z M20 1 C24 2 24 2 24 2 Z M25 2 C28 3 28 3 28 3 Z M-14 298 C-12 299 -12 299 -12 299 Z M-12 299 C-9 300 -9 300 -9 300 Z M-9 300 C-5 301 -5 301 -5 301 Z M-4 301 C1.61 301 7.22 301 13 301 C13 301.33 13 301.66 13 302 C7.39 302 1.78 302 -4 302 C-4 301.67 -4 301.34 -4 301 Z " fill="#000000" transform="translate(1804,341)"/>
<path d="M0 0 C3 1 3 1 3 1 Z M26 0 C30 1 30 1 30 1 Z M5.07 0.902 C5.867 0.904 6.663 0.905 7.483 0.907 C10.03 0.912 12.578 0.925 15.125 0.938 C16.85 0.943 18.576 0.947 20.301 0.951 C24.534 0.962 28.767 0.979 33 1 C33.495 1.99 33.495 1.99 34 3 C35.268 3.124 35.268 3.124 36.562 3.25 C43.631 4.792 48.728 10.062 52.809 15.844 C54.747 19.351 55.74 23.003 56 27 C55.505 28.485 55.505 28.485 55 30 C55.66 30 56.32 30 57 30 C57 33.3 57 36.6 57 40 C56.34 40 55.68 40 55 40 C54.67 41.65 54.34 43.3 54 45 C54.66 45 55.32 45 56 45 C56 46.32 56 47.64 56 49 C55.34 49 54.68 49 54 49 C54.309 50.299 54.309 50.299 54.625 51.625 C55.045 55.405 54.302 57.476 53 61 C53 62.32 53 63.64 53 65 C52.01 65.495 52.01 65.495 51 66 C51.186 66.722 51.371 67.444 51.562 68.188 C52.025 71.163 51.876 73.132 51 76 C50.01 76.495 50.01 76.495 49 77 C49.33 78.65 49.66 80.3 50 82 C49.01 82.495 49.01 82.495 48 83 C48.33 84.32 48.66 85.64 49 87 C48.34 87 47.68 87 47 87 C47.33 88.98 47.66 90.96 48 93 C47.34 93 46.68 93 46 93 C46.495 96.465 46.495 96.465 47 100 C46.01 100.495 46.01 100.495 45 101 C45.33 101.33 45.66 101.66 46 102 C46.125 104.5 46.125 104.5 46 107 C45.67 107.33 45.34 107.66 45 108 C44.959 109.666 44.957 111.334 45 113 C44.01 113.495 44.01 113.495 43 114 C43.33 114.33 43.66 114.66 44 115 C44.041 116.666 44.043 118.334 44 120 C43.01 120.495 43.01 120.495 42 121 C42.33 121.33 42.66 121.66 43 122 C43.25 124.375 43.25 124.375 43 127 C41.5 128.812 41.5 128.812 40 130 C40.66 130 41.32 130 42 130 C42 131.32 42 132.64 42 134 C41.34 134 40.68 134 40 134 C40.33 136.64 40.66 139.28 41 142 C40.34 142 39.68 142 39 142 C39.33 144.64 39.66 147.28 40 150 C39.34 150 38.68 150 38 150 C38.495 154.455 38.495 154.455 39 159 C38.34 159 37.68 159 37 159 C37.33 159.99 37.66 160.98 38 162 C38.04 164.333 38.044 166.667 38 169 C37.34 169.33 36.68 169.66 36 170 C36.33 170.33 36.66 170.66 37 171 C37.041 173.333 37.042 175.667 37 178 C36.34 178 35.68 178 35 178 C34.67 179.32 34.34 180.64 34 182 C34.66 182 35.32 182 36 182 C36 184.31 36 186.62 36 189 C35.34 189.33 34.68 189.66 34 190 C33.67 190.99 33.34 191.98 33 193 C33.66 193 34.32 193 35 193 C35 195.31 35 197.62 35 200 C34.34 200 33.68 200 33 200 C32.67 201.65 32.34 203.3 32 205 C32.66 205 33.32 205 34 205 C34 207.64 34 210.28 34 213 C33.34 213 32.68 213 32 213 C31.505 215.97 31.505 215.97 31 219 C31.66 219 32.32 219 33 219 C33 221.97 33 224.94 33 228 C32.34 228 31.68 228 31 228 C30.957 229.666 30.959 231.334 31 233 C31.33 233.33 31.66 233.66 32 234 C32.073 236.186 32.084 238.375 32.062 240.562 C32.053 241.76 32.044 242.958 32.035 244.191 C32.024 245.118 32.012 246.045 32 247 C31.34 247 30.68 247 30 247 C30 248.32 30 249.64 30 251 C30.66 251 31.32 251 32 251 C32.042 253.333 32.041 255.667 32 258 C31.67 258.33 31.34 258.66 31 259 C31.66 259.33 32.32 259.66 33 260 C34.286 266.429 34.286 266.429 33 269 C33.66 269 34.32 269 35 269 C35 270.65 35 272.3 35 274 C34.34 274 33.68 274 33 274 C33 276.97 33 279.94 33 283 C33.66 283 34.32 283 35 283 C35 284.65 35 286.3 35 288 C34.34 288 33.68 288 33 288 C33.268 288.557 33.536 289.114 33.812 289.688 C34 292 34 292 31.812 294.688 C29.222 296.818 28.194 297.588 25 298 C24.145 298.252 24.145 298.252 23.272 298.51 C20.374 299.135 17.669 299.112 14.703 299.098 C13.498 299.094 12.293 299.091 11.051 299.088 C9.169 299.075 9.169 299.075 7.25 299.062 C5.98 299.058 4.711 299.053 3.402 299.049 C0.268 299.037 -2.866 299.021 -6 299 C-6.33 298.34 -6.66 297.68 -7 297 C-7.825 296.938 -8.65 296.876 -9.5 296.812 C-17.698 294.909 -23.052 288.346 -27.496 281.551 C-31.081 275.471 -33.318 270.089 -34 263 C-34.206 262.072 -34.412 261.144 -34.625 260.188 C-35 258 -35 258 -34 256 C-34.66 256 -35.32 256 -36 256 C-36.1 252.508 -35.778 249.406 -35 246 C-35.66 246 -36.32 246 -37 246 C-37 242.7 -37 239.4 -37 236 C-36.34 236 -35.68 236 -35 236 C-35.114 234.52 -35.241 233.041 -35.375 231.562 C-35.445 230.739 -35.514 229.915 -35.586 229.066 C-35.723 228.384 -35.859 227.703 -36 227 C-36.66 226.67 -37.32 226.34 -38 226 C-38 219.07 -38 212.14 -38 205 C-37.34 205 -36.68 205 -36 205 C-36 198.07 -36 191.14 -36 184 C-36.66 184 -37.32 184 -38 184 C-38 176.41 -38 168.82 -38 161 C-37.34 161 -36.68 161 -36 161 C-35.67 158.03 -35.34 155.06 -35 152 C-35.66 152 -36.32 152 -37 152 C-37 148.7 -37 145.4 -37 142 C-36.34 142 -35.68 142 -35 142 C-34.67 140.02 -34.34 138.04 -34 136 C-34.66 136 -35.32 136 -36 136 C-36 133.03 -36 130.06 -36 127 C-35.34 127 -34.68 127 -34 127 C-34.165 126.505 -34.33 126.01 -34.5 125.5 C-35.207 121.966 -35.06 118.603 -35 115 C-34.34 115 -33.68 115 -33 115 C-33.33 114.01 -33.66 113.02 -34 112 C-34.04 109.667 -34.044 107.333 -34 105 C-33.01 104.505 -33.01 104.505 -32 104 C-32.33 103.67 -32.66 103.34 -33 103 C-33.041 100.667 -33.042 98.333 -33 96 C-32.01 95.505 -32.01 95.505 -31 95 C-31.33 94.67 -31.66 94.34 -32 94 C-32.041 92.334 -32.043 90.666 -32 89 C-31.34 89 -30.68 89 -30 89 C-30.33 86.36 -30.66 83.72 -31 81 C-30.34 81 -29.68 81 -29 81 C-29.495 78.03 -29.495 78.03 -30 75 C-29.34 75 -28.68 75 -28 75 C-28.33 72.69 -28.66 70.38 -29 68 C-28.01 67.505 -28.01 67.505 -27 67 C-27.495 64.525 -27.495 64.525 -28 62 C-27.01 61.505 -27.01 61.505 -26 61 C-26.186 60.278 -26.371 59.556 -26.562 58.812 C-27.025 55.837 -26.876 53.868 -26 51 C-25.01 50.505 -25.01 50.505 -24 50 C-24.33 48.68 -24.66 47.36 -25 46 C-24.01 45.505 -24.01 45.505 -23 45 C-23.33 43.68 -23.66 42.36 -24 41 C-23.34 41 -22.68 41 -22 41 C-22.33 39.35 -22.66 37.7 -23 36 C-22.01 35.505 -22.01 35.505 -21 35 C-21.186 34.423 -21.371 33.845 -21.562 33.25 C-22.047 30.758 -21.895 29.36 -21 27 C-20.34 26.67 -19.68 26.34 -19 26 C-19.214 25.459 -19.428 24.917 -19.648 24.359 C-20.419 19.187 -16.699 14.209 -14 10 C-7.848 3.344 -3.928 0.843 5.07 0.902 Z M34 2 C36 3 36 3 36 3 Z M-9 297 C-7 298 -7 298 -7 298 Z M25 297 C27 298 27 298 27 298 Z M-3 299 C1 300 1 300 1 300 Z M16 299 C17.65 299 19.3 299 21 299 C21 299.33 21 299.66 21 300 C19.35 300 17.7 300 16 300 C16 299.67 16 299.34 16 299 Z " fill="#000000" transform="translate(1070,343)"/>
<path d="M0 0 C85.47 0 170.94 0 259 0 C256 9 256 9 253 12 C251.986 13.816 251.986 13.816 251.141 15.781 C249.163 19.878 246.756 23.107 243.75 26.5 C243.238 27.086 242.725 27.672 242.198 28.276 C232.484 39.229 222.39 50.069 210 58 C208.445 59.027 208.445 59.027 206.859 60.074 C187.88 72.24 157.124 84.102 134 82 C131.274 79.922 130.62 78.267 130.125 74.938 C128.114 64.933 122.508 55.761 114.211 49.691 C112.525 48.702 110.761 47.849 109 47 C108.304 46.642 107.608 46.283 106.891 45.914 C102.122 43.46 98.354 41.881 92.909 41.842 C91.35 41.827 91.35 41.827 89.76 41.811 C88.635 41.804 87.511 41.797 86.352 41.789 C83.96 41.761 81.568 41.732 79.176 41.703 C75.413 41.662 71.65 41.625 67.887 41.599 C64.25 41.571 60.613 41.525 56.977 41.477 C55.872 41.473 54.767 41.47 53.629 41.467 C36.448 41.201 24.888 36.24 12.602 24.719 C10.224 22.235 8.631 20.002 7 17 C6.361 16.051 5.721 15.103 5.062 14.125 C2.853 10.777 0.796 7.591 -1 4 C-0.67 2.68 -0.34 1.36 0 0 Z " fill="#FEFEFE" transform="translate(252,382)"/>
<path d="M0 0 C1.65 0 3.3 0 5 0 C5 0.33 5 0.66 5 1 C3.35 1 1.7 1 0 1 C0 0.67 0 0.34 0 0 Z M-4 1 C-1 2 -1 2 -1 2 Z M15.125 1.25 C15.96 1.276 16.795 1.302 17.655 1.329 C23.515 1.623 28.536 2.878 34 5 C34 5.66 34 6.32 34 7 C35.33 7.124 35.33 7.124 36.688 7.25 C40.501 8.113 42.148 9.374 45 12 C45.763 12.701 46.526 13.403 47.312 14.125 C49 16 49 16 49 18 C49.639 18.103 50.279 18.206 50.938 18.312 C51.618 18.539 52.299 18.766 53 19 C54 22 54 22 53 25 C53.66 25 54.32 25 55 25 C54.67 27.31 54.34 29.62 54 32 C54.66 32 55.32 32 56 32 C56 33.65 56 35.3 56 37 C55.34 37 54.68 37 54 37 C54.082 38.072 54.165 39.145 54.25 40.25 C54.296 45.368 52.56 49.719 50.777 54.461 C49.693 56.961 49.693 56.961 51 59 C50.265 59.664 49.53 60.328 48.773 61.012 C45.586 64.2 43.696 67.846 41.625 71.812 C33.347 87.087 33.347 87.087 25.16 89.555 C17.428 91.149 7.72 90.535 0 89 C-0.495 88.01 -0.495 88.01 -1 87 C-3.126 86.533 -3.126 86.533 -5.562 86.375 C-6.389 86.3 -7.215 86.225 -8.066 86.148 C-9.024 86.075 -9.024 86.075 -10 86 C-10 85.34 -10 84.68 -10 84 C-10.536 83.897 -11.072 83.794 -11.625 83.688 C-14.65 82.812 -17.25 81.528 -20 80 C-20.33 79.34 -20.66 78.68 -21 78 C-23.025 77.348 -23.025 77.348 -25 77 C-25 76.34 -25 75.68 -25 75 C-25.99 74.34 -26.98 73.68 -28 73 C-27.505 72.01 -27.505 72.01 -27 71 C-27.99 70.67 -28.98 70.34 -30 70 C-29.505 69.505 -29.505 69.505 -29 69 C-29.66 68.34 -30.32 67.68 -31 67 C-30.505 66.505 -30.505 66.505 -30 66 C-30.66 65.67 -31.32 65.34 -32 65 C-32 60.05 -32 55.1 -32 50 C-31.34 50 -30.68 50 -30 50 C-30.33 48.35 -30.66 46.7 -31 45 C-30.01 44.505 -30.01 44.505 -29 44 C-29 42.68 -29 41.36 -29 40 C-29 39.34 -29 38.68 -29 38 C-28.01 37.505 -28.01 37.505 -27 37 C-27 36.01 -27 35.02 -27 34 C-26.625 31.875 -26.625 31.875 -26 30 C-25.34 29.67 -24.68 29.34 -24 29 C-24 28.01 -24 27.02 -24 26 C-22.563 20.515 -19.831 15.862 -17 11 C-16.01 11 -15.02 11 -14 11 C-13.691 9.886 -13.691 9.886 -13.375 8.75 C-11.479 4.957 -9.817 3.875 -6 2 C0.865 0.381 8.129 0.985 15.125 1.25 Z M19 1 C22 2 22 2 22 2 Z M34 6 C36 7 36 7 36 7 Z M-17 82 C-15 83 -15 83 -15 83 Z M-12 84 C-10 85 -10 85 -10 85 Z M-7 86 C-5 87 -5 87 -5 87 Z M-4 87 C-1 88 -1 88 -1 88 Z M4 89 C6 90 6 90 6 90 Z M23 90 C25 91 25 91 25 91 Z " fill="#000000" transform="translate(1100,239)"/>
<path d="M0 0 C5.28 0 10.56 0 16 0 C16 0.33 16 0.66 16 1 C10.72 1 5.44 1 0 1 C0 0.67 0 0.34 0 0 Z M-4 1 C-1 2 -1 2 -1 2 Z M29 4 C29 4.66 29 5.32 29 6 C29.626 6.121 30.253 6.242 30.898 6.367 C31.716 6.535 32.533 6.702 33.375 6.875 C34.187 7.037 34.999 7.2 35.836 7.367 C38 8 38 8 40 10 C40.681 10.309 41.361 10.619 42.062 10.938 C44 12 44 12 45 15 C47.015 15.733 47.015 15.733 49 16 C49 17.32 49 18.64 49 20 C50.485 20.495 50.485 20.495 52 21 C52 23.333 52 25.667 52 28 C52.66 28 53.32 28 54 28 C54 28.66 54 29.32 54 30 C53.34 30 52.68 30 52 30 C52.495 30.99 52.495 30.99 53 32 C53.12 52.274 44.534 70.31 31.047 85.406 C24.916 90.18 19.186 90.449 11.688 90.312 C10.782 90.316 9.876 90.319 8.943 90.322 C2.268 90.268 2.268 90.268 0 88 C-3.083 87.833 -3.083 87.833 -6 88 C-6.495 87.01 -6.495 87.01 -7 86 C-9.315 85.271 -11.651 84.608 -14 84 C-17 83 -17 83 -20 81 C-20.66 80.67 -21.32 80.34 -22 80 C-22.66 79.67 -23.32 79.34 -24 79 C-24 78.34 -24 77.68 -24 77 C-24.99 76.67 -25.98 76.34 -27 76 C-27.333 74.667 -27.667 73.333 -28 72 C-28.99 71.67 -29.98 71.34 -31 71 C-33.287 67.736 -33.212 64.836 -33.125 60.938 C-33.107 59.895 -33.089 58.852 -33.07 57.777 C-33.047 56.861 -33.024 55.944 -33 55 C-33 54.01 -33 53.02 -33 52 C-33 50.68 -33 49.36 -33 48 C-32.01 47.505 -32.01 47.505 -31 47 C-31.495 45.515 -31.495 45.515 -32 44 C-31.01 43.505 -31.01 43.505 -30 43 C-30 41.68 -30 40.36 -30 39 C-29.125 35.312 -29.125 35.312 -28 32 C-27.34 31.67 -26.68 31.34 -26 31 C-26 30.01 -26 29.02 -26 28 C-24.268 19.513 -19.642 11.594 -13 6 C-10.812 4.812 -10.812 4.812 -9 4 C-8.34 3.34 -7.68 2.68 -7 2 C-4.773 1.665 -4.773 1.665 -2.02 1.551 C-1.02 1.508 -0.02 1.464 1.01 1.42 C2.058 1.384 3.107 1.349 4.188 1.312 C5.731 1.242 5.731 1.242 7.307 1.17 C15.109 0.865 21.596 1.291 29 4 Z M29 5 C31 6 31 6 31 6 Z M32 6 C34 7 34 7 34 7 Z M-19 82 C-17 83 -17 83 -17 83 Z M-14 84 C-12 85 -12 85 -12 85 Z M-12 85 C-10 86 -10 86 -10 86 Z M-9 86 C-7 87 -7 87 -7 87 Z M-3 88 C0 89 0 89 0 89 Z M5 90 C8 91 8 91 8 91 Z " fill="#000000" transform="translate(1831,238)"/>
<path d="M0 0 C2.31 0 4.62 0 7 0 C7 0.33 7 0.66 7 1 C4.69 1 2.38 1 0 1 C0 0.67 0 0.34 0 0 Z M-5 1 C-1 2 -1 2 -1 2 Z M7 1 C11 2 11 2 11 2 Z M3.5 1.312 C4.481 1.285 5.462 1.257 6.473 1.229 C15.25 1.258 20.192 4.517 26.523 10.309 C30.311 14.663 33.358 18.418 35 24 C34.688 26.437 34.688 26.437 34 28 C34.66 28.33 35.32 28.66 36 29 C36.359 34.742 35.244 38.751 33 44 C32.563 45.218 32.563 45.218 32.117 46.461 C30.892 49.245 29.48 51.195 27.5 53.5 C26.892 54.232 26.283 54.964 25.656 55.719 C18.155 62.161 11.148 63.812 1.438 63.188 C0.461 63.168 -0.515 63.148 -1.521 63.127 C-9.987 62.702 -15.373 59.633 -21.305 53.691 C-29.472 42.619 -29.472 42.619 -28.625 34.875 C-28.494 34.068 -28.362 33.261 -28.227 32.43 C-27.868 29.969 -27.868 29.969 -28.586 27.496 C-29.482 22.092 -25.417 17.021 -22.422 12.75 C-15.306 3.971 -7.636 1.144 3.5 1.312 Z M-4.562 11.375 C-5.274 12.179 -5.274 12.179 -6 13 C-7.323 14.014 -8.655 15.015 -10 16 C-6.729 16.168 -3.458 16.334 -0.188 16.5 C0.741 16.548 1.67 16.595 2.627 16.645 C3.52 16.69 4.412 16.735 5.332 16.781 C6.565 16.844 6.565 16.844 7.823 16.908 C9.548 16.981 11.274 17 13 17 C13.289 17.639 13.577 18.279 13.875 18.938 C14.828 21.152 14.828 21.152 17 22 C17.407 24.322 17.744 26.657 18 29 C17.34 29.33 16.68 29.66 16 30 C13.75 32.833 13.75 32.833 12 36 C12.776 39.075 12.776 39.075 15 41 C15.33 41.99 15.66 42.98 16 44 C18 45.209 18 45.209 20 46 C22.097 43.64 22.969 42.454 23.188 39.25 C23.126 38.507 23.064 37.765 23 37 C23.66 36.67 24.32 36.34 25 36 C25 33.03 25 30.06 25 27 C24.34 27 23.68 27 23 27 C23.495 25.515 23.495 25.515 24 24 C23.34 24 22.68 24 22 24 C22.33 22.68 22.66 21.36 23 20 C22.01 19.67 21.02 19.34 20 19 C18.311 17.356 16.647 15.686 15 14 C10.177 9.308 1.21 6.295 -4.562 11.375 Z M-14 19 C-14.289 19.969 -14.577 20.939 -14.875 21.938 C-16 25 -16 25 -18 26 C-17.67 27.32 -17.34 28.64 -17 30 C-17.66 30 -18.32 30 -19 30 C-19 31.32 -19 32.64 -19 34 C-18.34 34 -17.68 34 -17 34 C-17 35.32 -17 36.64 -17 38 C-17.66 38.33 -18.32 38.66 -19 39 C-18.01 39 -17.02 39 -16 39 C-16.33 39.99 -16.66 40.98 -17 42 C-16.021 43.021 -15.02 44.021 -14 45 C-13.67 45 -13.34 45 -13 45 C-13 36.42 -13 27.84 -13 19 C-13.33 19 -13.66 19 -14 19 Z M-1 23 C-1 23.33 -1 23.66 -1 24 C0.65 24 2.3 24 4 24 C4 23.67 4 23.34 4 23 C2.35 23 0.7 23 -1 23 Z M-1 25 C-1 26.65 -1 28.3 -1 30 C2.465 29.505 2.465 29.505 6 29 C6.33 27.68 6.66 26.36 7 25 C4.36 25 1.72 25 -1 25 Z M-1 38 C-1 41.3 -1 44.6 -1 48 C-4.3 48 -7.6 48 -11 48 C-4.372 52.971 0.854 53.802 9 53 C11.578 52.232 13.612 51.274 16 50 C16 49.34 16 48.68 16 48 C13.03 47.67 10.06 47.34 7 47 C6.67 46.01 6.34 45.02 6 44 C5.484 43.484 4.969 42.969 4.438 42.438 C3.726 41.726 3.726 41.726 3 41 C3 40.34 3 39.68 3 39 C1.68 38.67 0.36 38.34 -1 38 Z M-2 54 C-2 54.33 -2 54.66 -2 55 C1.3 55 4.6 55 8 55 C8 54.67 8 54.34 8 54 C4.7 54 1.4 54 -2 54 Z M5 11 C6.65 11 8.3 11 10 11 C10 11.33 10 11.66 10 12 C8.35 12 6.7 12 5 12 C5 11.67 5 11.34 5 11 Z M-7 62 C-4 63 -4 63 -4 63 Z M-3 63 C1.29 63 5.58 63 10 63 C10 63.33 10 63.66 10 64 C5.71 64 1.42 64 -3 64 C-3 63.67 -3 63.34 -3 63 Z " fill="#000000" transform="translate(2205,128)"/>
<path d="M0 0 C7.59 0 15.18 0 23 0 C23 0.33 23 0.66 23 1 C15.41 1 7.82 1 0 1 C0 0.67 0 0.34 0 0 Z " fill="#FF0000" transform="translate(369,88)"/>
<path d="M0 0 C6.93 0 13.86 0 21 0 C21 0.33 21 0.66 21 1 C14.07 1 7.14 1 0 1 C0 0.67 0 0.34 0 0 Z " fill="#000000" transform="translate(1074,342)"/>
<path d="M0 0 C6.6 0 13.2 0 20 0 C20 0.33 20 0.66 20 1 C13.4 1 6.8 1 0 1 C0 0.67 0 0.34 0 0 Z " fill="#000000" transform="translate(1692,232)"/>
<path d="M0 0 C5.28 0 10.56 0 16 0 C16 0.33 16 0.66 16 1 C10.72 1 5.44 1 0 1 C0 0.67 0 0.34 0 0 Z " fill="#E31C4F" transform="translate(374,677)"/>
<path d="M0 0 C4.29 0 8.58 0 13 0 C13 0.33 13 0.66 13 1 C8.71 1 4.42 1 0 1 C0 0.67 0 0.34 0 0 Z " fill="#000000" transform="translate(1072,643)"/>
<path d="M0 0 C3.96 0 7.92 0 12 0 C12 0.33 12 0.66 12 1 C8.04 1 4.08 1 0 1 C0 0.67 0 0.34 0 0 Z " fill="#000000" transform="translate(1840,329)"/>
<path d="M0 0 C3.3 0 6.6 0 10 0 C10 0.33 10 0.66 10 1 C6.7 1 3.4 1 0 1 C0 0.67 0 0.34 0 0 Z " fill="#000000" transform="translate(1112,330)"/>
<path d="M0 0 C2.97 0 5.94 0 9 0 C9 0.33 9 0.66 9 1 C6.03 1 3.06 1 0 1 C0 0.67 0 0.34 0 0 Z " fill="#000000" transform="translate(1578,126)"/>
<path d="M0 0 C2.64 0 5.28 0 8 0 C8 0.33 8 0.66 8 1 C5.36 1 2.72 1 0 1 C0 0.67 0 0.34 0 0 Z " fill="#000000" transform="translate(1394,310)"/>
<path d="M0 0 C2.64 0 5.28 0 8 0 C8 0.33 8 0.66 8 1 C5.36 1 2.72 1 0 1 C0 0.67 0 0.34 0 0 Z " fill="#E71641" transform="translate(358,89)"/>
<path d="M0 0 C2.31 0 4.62 0 7 0 C7 0.33 7 0.66 7 1 C4.69 1 2.38 1 0 1 C0 0.67 0 0.34 0 0 Z " fill="#E32240" transform="translate(313,732)"/>
<path d="M0 0 C2.31 0 4.62 0 7 0 C7 0.33 7 0.66 7 1 C4.69 1 2.38 1 0 1 C0 0.67 0 0.34 0 0 Z " fill="#E31938" transform="translate(305,731)"/>
<path d="M0 0 C1.98 0 3.96 0 6 0 C6 0.33 6 0.66 6 1 C4.02 1 2.04 1 0 1 C0 0.67 0 0.34 0 0 Z " fill="#000000" transform="translate(1392,641)"/>
<path d="M0 0 C1.98 0 3.96 0 6 0 C6 0.33 6 0.66 6 1 C4.02 1 2.04 1 0 1 C0 0.67 0 0.34 0 0 Z " fill="#000000" transform="translate(1106,238)"/>
<path d="M0 0 C1.65 0 3.3 0 5 0 C5 0.33 5 0.66 5 1 C3.35 1 1.7 1 0 1 C0 0.67 0 0.34 0 0 Z " fill="#EA2662" transform="translate(299,730)"/>
<path d="M0 0 C1.65 0 3.3 0 5 0 C5 0.33 5 0.66 5 1 C3.35 1 1.7 1 0 1 C0 0.67 0 0.34 0 0 Z " fill="#C91B36" transform="translate(368,678)"/>
<path d="M0 0 C1.65 0 3.3 0 5 0 C5 0.33 5 0.66 5 1 C3.35 1 1.7 1 0 1 C0 0.67 0 0.34 0 0 Z " fill="#000000" transform="translate(1938,642)"/>
<path d="M0 0 C1.65 0 3.3 0 5 0 C5 0.33 5 0.66 5 1 C3.35 1 1.7 1 0 1 C0 0.67 0 0.34 0 0 Z " fill="#8E1424" transform="translate(573,283)"/>
<path d="M0 0 C1.65 0 3.3 0 5 0 C5 0.33 5 0.66 5 1 C3.35 1 1.7 1 0 1 C0 0.67 0 0.34 0 0 Z " fill="#000000" transform="translate(1113,239)"/>
<path d="M0 0 C4 1 4 1 4 1 Z " fill="#C52F3A" transform="translate(462,729)"/>
<path d="M0 0 C4 1 4 1 4 1 Z " fill="#C52F3A" transform="translate(294,729)"/>
<path d="M0 0 C4 1 4 1 4 1 Z " fill="#FB2244" transform="translate(557,372)"/>
<path d="M0 0 C4 1 4 1 4 1 Z " fill="#000000" transform="translate(1403,311)"/>
<path d="M0 0 C4 1 4 1 4 1 Z " fill="#000000" transform="translate(1714,233)"/>
<path d="M0 0 C4 1 4 1 4 1 Z " fill="#890D16" transform="translate(278,196)"/>
<path d="M0 0 C3 1 3 1 3 1 Z " fill="#B6111E" transform="translate(467,728)"/>
<path d="M0 0 C3 1 3 1 3 1 Z " fill="#B6111E" transform="translate(290,728)"/>
<path d="M0 0 C3 1 3 1 3 1 Z " fill="#FF0000" transform="translate(471,727)"/>
<path d="M0 0 C3 1 3 1 3 1 Z " fill="#FA2E30" transform="translate(553,371)"/>
<path d="M0 0 C3 1 3 1 3 1 Z " fill="#000000" transform="translate(1107,329)"/>
<path d="M0 0 C3 1 3 1 3 1 Z " fill="#000000" transform="translate(2126,309)"/>
<path d="M0 0 C3 1 3 1 3 1 Z " fill="#B6111E" transform="translate(562,286)"/>
<path d="M0 0 C3 1 3 1 3 1 Z " fill="#B61149" transform="translate(566,285)"/>
<path d="M0 0 C3 1 3 1 3 1 Z " fill="#8C111E" transform="translate(570,284)"/>
<path d="M0 0 C3 1 3 1 3 1 Z " fill="#FF002B" transform="translate(394,89)"/>
<path d="M0 0 C3 1 3 1 3 1 Z " fill="#FF0000" transform="translate(419,82)"/>
<path d="M0 0 C2 1 2 1 2 1 Z " fill="#FF0000" transform="translate(321,733)"/>
<path d="M0 0 C2 1 2 1 2 1 Z " fill="#000000" transform="translate(548,292)"/>
<path d="M0 0 C2 1 2 1 2 1 Z " fill="#000000" transform="translate(971,232)"/>
<path d="" fill="#000000" transform="translate(0,0)"/>
</svg>